<?xml version="1.0" encoding="UTF-8" standalone="no"?>
<svg xmlns:rdf="http://www.w3.org/1999/02/22-rdf-syntax-ns#" xmlns="http://www.w3.org/2000/svg" height="500" width="700" version="1.1" xmlns:cc="http://creativecommons.org/ns#" xmlns:dc="http://purl.org/dc/elements/1.1/" viewBox="0 0 700.00001 500.00001">
 <g transform="translate(0 -552.36)">
  <path fill="#ff7f50" d="m168.41 588.32c-0.8277-0.007-1.5513-0.004-2.1856 0.008-3.0446 0.0558-4.0082 0.32143-4.293 0.77149-0.96209 1.5208-1.282 298.41-0.32422 300.9 0.38384 1.0003 1.7255 1.4893 4.0293 1.4609 11.085-0.13679 82.407-4.4566 83.365-5.0488 1.7101-1.0569 1.6791-291.97-0.0312-293.33-0.65182-0.52126-20.308-1.9434-43.678-3.1562-20.246-1.0507-31.089-1.556-36.883-1.6035zm362.56 0.0156c-5.8118 0.0499-16.662 0.55716-36.848 1.6016-23.372 1.2093-43.03 2.6222-43.682 3.1426-1.7388 1.3881-1.7386 292.28 0 293.36 0.65089 0.4023 17.826 1.6506 38.164 2.7754 47.986 2.6538 48.482 2.6579 49.199 0.78906 0.95328-2.4842 0.63722-299.38-0.32031-300.89-0.28222-0.44612-1.2601-0.71318-4.3184-0.76757-0.63714-0.0113-1.3651-0.013-2.1953-0.006zm-274.65 1.1914-0.24219 102.16-0.24023 102.17 93.629-0.24219 93.631-0.24414v-101.92-101.92h-93.387-93.391zm287.47 0.8086c-0.27776-0.002-0.51507 0.0461-0.69336 0.15625-1.0445 0.64554-1.3319 296.49-0.28906 297.54 1.0344 1.0344 1.7388 0.76903 5.8418-2.2031 2.153-1.5596 4.1536-3.7985 4.4414-4.9766 0.28777-1.1781 0.40219-65.31 0.25586-142.51-0.25029-132.11-0.36356-140.51-1.9336-142.91-1.6227-2.4763-5.6785-5.0734-7.623-5.0938zm-388.38 0.0723c-1.9817 0.12123-5.7795 2.5451-7.4024 5.0215-1.5696 2.3951-1.6854 10.833-1.9688 142.83-0.16565 77.154-0.0601 141.24 0.23438 142.41 0.29433 1.1726 2.3362 3.4532 4.5352 5.0703 2.1989 1.6171 4.44 2.7913 4.9805 2.6113 1.2478-0.41593 1.8615-296.43 0.61719-297.67-0.15176-0.15175-0.36451-0.23583-0.62695-0.26563-0.11481-0.013-0.23703-0.0159-0.36914-0.008zm483.6 3.6445c-5.8458 0.051-16.714 0.55369-36.789 1.584-23.377 1.1998-43.038 2.6109-43.689 3.1328-0.93888 0.75175-1.1856 31.255-1.1856 146.79 0 115.64 0.24578 145.99 1.1856 146.58 0.65181 0.40785 17.613 1.651 37.689 2.7637 47.78 2.648 48.955 2.665 49.674 0.79297 0.94511-2.4629 0.6367-299.38-0.3125-300.88-0.2777-0.43889-1.2797-0.69969-4.3633-0.75196-0.64241-0.0109-1.3739-0.0131-2.209-0.006zm-580.81 0.01c-3.0836 0.0522-4.0914 0.30918-4.3691 0.74805-0.94918 1.4999-1.2557 298.42-0.31055 300.88 0.40109 1.0453 1.7662 1.4889 4.5039 1.457 11.4-0.1329 81.866-4.4115 82.869-5.0312 1.7297-1.0697 1.722-291.96-0.008-293.35-0.65184-0.52192-20.314-1.933-43.691-3.1328-22.943-1.1775-33.855-1.6594-38.994-1.5723zm208.91 0.0176c0.70265 0 1.2176 0.0833 1.8926 0.30469 1.7428 0.57164 2.9436 1.813 3.3613 3.4746 0.16385 0.65172 0.19966 1.5366 0.0918 2.2695-0.29931 2.0346-1.5964 4.4749-3.2773 6.166-0.8811 0.88642-1.5267 1.2891-2.0684 1.2891-0.15353 0-0.27212-0.0197-0.41016-0.0684-1.282-0.45248-3.2084-2.7292-4.1973-4.959-0.79242-1.7867-0.99828-3.3613-0.62305-4.7832 0.42665-1.6168 1.6192-2.8257 3.3477-3.3926 0.66388-0.21773 1.1837-0.30078 1.8828-0.30078zm165.71 0h0.10547c0.76412-0.001 1.5006 0.29722 2.1074 0.85937l0.24219 0.22266h0.14453c1.7834 0 3.0807 1.2215 3.1758 2.9922l0.0176 0.32617 0.24414 0.2793c0.57081 0.64956 0.83018 1.2958 0.83008 2.082 0 0.79028-0.31688 1.5424-0.90625 2.1562h-0.002l-0.17383 0.17968v0.17578c-0.00035 0.56754-0.16057 1.1863-0.4336 1.6563-0.20383 0.35082-0.66293 0.82302-1.0039 1.0293-0.46193 0.27943-0.99246 0.4355-1.4922 0.4375-0.19242 0.0006-0.29258 0.0104-0.36328 0.0371s-0.13536 0.077-0.25586 0.19336c-0.39319 0.37959-0.859 0.64578-1.3789 0.78516-0.31396 0.0842-0.893 0.11976-1.2012 0.0684h-0.006l-0.0137-0.002c-0.64463-0.11822-1.2161-0.41684-1.7031-0.88867-0.0568-0.055-0.10809-0.10588-0.14649-0.14258-0.0111-0.0106-0.0193-0.0174-0.0273-0.0254-0.0208-0.002-0.0441-0.004-0.0762-0.006-0.0779-0.005-0.18548-0.0106-0.30274-0.0176-0.24313-0.0144-0.52989-0.0496-0.68164-0.0879-0.89105-0.2249-1.652-0.87979-2.0156-1.7363-0.16056-0.37847-0.21178-0.61759-0.23438-1.0879l-0.0176-0.375-0.1875-0.20118c-0.59916-0.64325-0.88476-1.3373-0.88476-2.1562 0-0.8394 0.27786-1.5138 0.88867-2.1602l0.18555-0.19532 0.0156-0.35546c0.024-0.50003 0.11085-0.86473 0.30469-1.2617 0.30812-0.63109 0.76511-1.0774 1.4121-1.3867 0.39096-0.18692 0.76398-0.27814 1.25-0.30274l0.33984-0.0156 0.1582-0.14453c0.47108-0.43401 0.91895-0.6985 1.4238-0.83008 0.21973-0.0573 0.4397-0.0779 0.65821-0.0859l0.004-0.0137v-0.002zm0.0801 0.40429c-0.48438 0.0111-1.028 0.1816-1.4316 0.45704-0.0891 0.0608-0.23004 0.18021-0.3418 0.2871-0.0327 0.0312-0.0539 0.0547-0.0801 0.082 0.026 0.007 0.0384 0.0115 0.0723 0.0215 0.0835 0.0245 0.186 0.0559 0.28711 0.0879l0.29687 0.0918 0.0918-0.0605c0.61579-0.4156 1.3514-0.46363 2.0371-0.13476 0.36142 0.17336 0.78109 0.6039 0.96484 0.97851 0.30375 0.61923 0.33949 1.2564 0.11329 1.834 0.0774-0.0406 0.13496-0.0764 0.22656-0.11914 0.0871-0.0406 0.17375-0.0789 0.24805-0.10938 0.0743-0.0304 0.12704-0.0528 0.18554-0.0644 0.0585-0.0118 0.0536-0.011 0.0645-0.0293s0.0301-0.0882 0.041-0.2168c0.0361-0.42697-0.10271-1.08-0.33789-1.543-0.43788-0.86197-1.2051-1.4184-2.1152-1.543-0.077-0.0106-0.15869-0.0175-0.24219-0.0195-0.0289-0.00024-0.0542-0.00049-0.0801 0zm-0.0566 1.0391c-0.11144 0.002-0.2179 0.0131-0.2793 0.0273-0.0855 0.0197-0.26246 0.10848-0.38281 0.17188 0.0464 0.0353 0.0567 0.0454 0.16211 0.12109 0.1251 0.0898 0.31284 0.25406 0.44141 0.38476 0.0526 0.0535 0.0991 0.0977 0.13867 0.13477 0.0402-0.0366 0.0895-0.0816 0.14258-0.13477 0.13069-0.13091 0.34321-0.31604 0.49218-0.42773 0.0431-0.0324 0.0745-0.0596 0.10938-0.0879-0.01-0.006-0.0146-0.008-0.0254-0.0137-0.10007-0.0521-0.22884-0.10796-0.30664-0.13086-0.0776-0.0227-0.24337-0.04-0.40235-0.043h-0.0195c-0.0244-0.00024-0.0476-0.002-0.0703-0.002zm2.7305 0.0605c-0.0256 0-0.0354 0.003-0.0566 0.004 0.0143 0.0284 0.0243 0.053 0.043 0.084 0.0765 0.12688 0.16679 0.30257 0.21289 0.41602 0.0165 0.0407 0.038 0.082 0.0547 0.10742 0.003 0.006 0.005 0.006 0.008 0.01 0.0354 0.009 0.11246 0.0259 0.19726 0.0449 0.48336 0.10795 0.91915 0.41133 1.1992 0.83008 0.28255 0.42237 0.39022 0.908 0.32422 1.4394-0.0412 0.3316-0.1 0.50991-0.26367 0.82031-0.24879 0.47187-0.60639 0.8006-1.0547 0.98438 0.11731 0.0348 0.24295 0.0731 0.36523 0.11914 0.0807 0.0303 0.15465 0.0591 0.21485 0.0859 0.0301 0.0134 0.0567 0.0266 0.0801 0.0391 0.0202 0.0108 0.0383 0.0215 0.0625 0.043-0.0006 0-0.00048 0.001 0.0156-0.006 0.0416-0.0183 0.1306-0.0819 0.25-0.19336 0.29911-0.27932 0.472-0.51924 0.65625-0.9082 0.51694-1.0913 0.33485-2.3384-0.44531-3.127-0.36614-0.37006-0.73881-0.57975-1.2637-0.71289-0.19546-0.0496-0.43232-0.0781-0.59766-0.0801h-0.002zm-5.3144 0.0234c-0.42717 0.001-0.46259 0.003-0.70899 0.084-1.1046 0.36102-1.8035 1.2443-1.8574 2.332v0.002c-0.004 0.0847-0.006 0.16247-0.006 0.23047 0.0904-0.0522 0.18967-0.10814 0.32617-0.17774 0.14583-0.0743 0.22471-0.11957 0.25391-0.14257 0.0287-0.023 0.0154-0.005 0.0254-0.043 0.18975-0.742 0.52756-1.2058 1.0938-1.4844 0.30425-0.14972 0.63017-0.22338 0.95898-0.22265l0.18164-0.0645-0.0391 0.0801c0.29329 0.0199 0.58475 0.0883 0.85938 0.22656 0.54202 0.27295 0.87714 0.62766 1.0703 1.1133 0.005-0.0196 0.005-0.0193 0.01-0.0391 0.0502-0.18266 0.13478-0.4124 0.20118-0.54297 0.0327-0.0644 0.0516-0.11017 0.0586-0.13867 0.008-0.0285 0.008-0.0352 0.002-0.0527-0.0116-0.0351-0.0822-0.12638-0.24609-0.28711-0.32777-0.32154-0.51501-0.44967-0.89453-0.61328-0.48999-0.21121-0.74439-0.26177-1.2852-0.25977h-0.004zm3.7578 0.21875-0.006 0.004-0.006 0.0273 0.0215-0.0234c-0.003-0.003-0.007-0.005-0.01-0.008zm0.0898 0.11719-0.10156 0.0527c-0.21063 0.11231-0.61089 0.44969-0.78516 0.66602-0.14177 0.17597-0.35805 0.58445-0.43945 0.83984-0.10813 0.33923-0.14453 0.69003-0.14453 1.4414v0.68164l0.14648 0.14844c0.0475 0.048 0.0957 0.0917 0.13281 0.12109 0.002-0.001 0.002-0.003 0.004-0.004 0.0398-0.0322 0.093-0.0804 0.14453-0.13281l0.16016-0.16406 0.0137-0.67969c0.017-0.82196 0.0659-1.0961 0.27149-1.5293 0.14635-0.30845 0.46976-0.63588 0.80859-0.83985 0.10743-0.0647 0.1455-0.0945 0.1582-0.10351-0.0105-0.0239-0.0837-0.14652-0.16211-0.25391-0.0803-0.10998-0.18131-0.22328-0.19531-0.23438l-0.0117-0.01zm-386.57 0.0801c-1.9445 0.0203-6.0062 2.6213-7.6289 5.0976-1.57 2.3959-1.6819 10.803-1.9336 142.91-0.1471 77.2-0.04135 141.28 0.23438 142.41 0.27575 1.1269 2.296 3.3658 4.4863 4.9766 2.1903 1.6107 4.5354 2.9316 5.2148 2.9316 1.0099 0 1.2363-27.164 1.2363-148.8 0-95.175-0.33132-149.01-0.91993-149.37-0.1783-0.11021-0.41166-0.15915-0.68945-0.15625zm604.32 0c-0.27781-0.002-0.51115 0.0461-0.68945 0.15625-1.0445 0.64554-1.332 296.49-0.28906 297.54 1.0786 1.0786 1.9368 0.73423 6.1719-2.4961l4.1016-3.1289v-142.21c0-134.13-0.0946-142.35-1.668-144.75-1.6227-2.4764-5.6825-5.0773-7.627-5.0976zm-123.98 0.19336c0.2616 0.0129 0.52222 0.0616 0.77539 0.15234 1.509 0.5411 1.5412 4.2733 0.0488 5.7656-2.3016 2.3016-4.5527 1.1647-4.5527-2.3027 0-1.9973 1.8973-3.7061 3.7285-3.6152zm-97.564 0.32421-0.006 0.01c-0.045 0.0869-0.10034 0.34265-0.11914 0.60547s-0.007 0.54566 0.0312 0.71094c0.1715 0.73339 0.451 1.1513 1.4453 2.1387l0.56445 0.56055 0.0234-0.0176c0.0541-0.0429 0.19983-0.18124 0.29883-0.28516 0.0411-0.0432 0.076-0.0812 0.10547-0.11523-0.0356-0.0385-0.0792-0.0842-0.13672-0.14453-0.1341-0.14071-0.31876-0.33157-0.52344-0.53907-0.37883-0.38404-0.6038-0.61727-0.75781-0.8125-0.15394-0.19514-0.23471-0.35442-0.31641-0.55664-0.16679-0.41266-0.17859-0.87666-0.041-1.3809 0.007-0.0261 0.0116-0.0477 0.0156-0.0703-0.0321-0.009-0.0669-0.019-0.11133-0.0293-0.11246-0.0261-0.25231-0.0511-0.35937-0.0625l-0.11328-0.0117zm-258.42 0.0996c2.8183 0 4.5324 2.6577 3.2226 4.998-1.7523 3.1311-5.5625 1.1998-5.5625-2.8203 0-1.6857 0.53339-2.1777 2.3398-2.1777zm264.12 0.0332c0.016 0.0652 0.025 0.14087 0.0352 0.25 0.011 0.11749 0.0213 0.25666 0.0273 0.39453v0.002l0.0156 0.35352 0.25976 0.006c0.22399 0.005 0.44981 0.0183 0.56445 0.041h0.002c0.0634 0.013 0.11507 0.0155 0.16797 0.0195-0.0105-0.0309-0.019-0.0577-0.0312-0.0918-0.14797-0.41108-0.38404-0.67402-0.77344-0.86133-0.10663-0.0513-0.19582-0.0898-0.26172-0.11328-0.003-0.00063-0.00091 0.00098-0.004 0h-0.002zm-6.1836 0.01c-0.0257 0.008-0.0464 0.0134-0.0742 0.0234-0.11673 0.0405-0.24912 0.0961-0.29492 0.12305-0.0442 0.0259-0.20639 0.15719-0.31055 0.25976-0.17867 0.17591-0.32671 0.45456-0.37891 0.66602 0.0628-0.0113 0.1165-0.0225 0.1875-0.0332 0.1339-0.0203 0.38804-0.0389 0.5918-0.0449l0.21094-0.006-0.002-0.0605v-0.002c-0.007-0.1451 0.0145-0.42684 0.0449-0.67382 0.0119-0.0973 0.0184-0.17856 0.0254-0.25196zm1.4004 0.0156c-0.001 0-0.003 0.003-0.004 0.004l0.0117 0.13868c0.0165 0 0.009 0.00004 0.0156-0.002l-0.0195-0.14062h-0.002-0.002zm0.0566 0.16797c-0.0104 0.0256-0.0211 0.0541-0.0312 0.0976-0.0264 0.11251-0.0459 0.27218-0.0449 0.44336 0.001 0.30741 0.003 0.31624 0.0937 0.52735 0.14467 0.33804 0.35145 0.61706 0.74414 1l0.15429 0.15234c0.001-0.0219 0.001-0.0193 0.002-0.043 0.002-0.10958 0.001-0.24753-0.004-0.38476-0.0256-0.7441-0.13877-1.0925-0.44336-1.4258-0.077-0.0842-0.2077-0.19419-0.32422-0.27539-0.0557-0.0389-0.10648-0.0705-0.14648-0.0918zm3.2852 0.01c-0.048 0.0229-0.1066 0.0526-0.1875 0.11328-0.10317 0.0773-0.21449 0.17509-0.30469 0.27149-0.3008 0.32156-0.43111 0.73745-0.44141 1.5254-0.002 0.15404 0.002 0.22409 0.004 0.30859 0.0309-0.0282 0.0557-0.0501 0.0898-0.082 0.73016-0.68334 0.99775-1.2573 0.90625-1.8535-0.0168-0.10919-0.0519-0.23821-0.0664-0.28321zm-5.0625 1.2188c-0.10479 0.0005-0.21582 0.004-0.32422 0.0156-1.0209 0.11108-1.9823 0.78269-2.373 1.6445-0.34257 0.75554-0.29681 1.675 0.11523 2.377 0.0652 0.11104 0.2105 0.2997 0.3418 0.44922 0.0431 0.0492 0.0785 0.0837 0.11524 0.12109 0.009-0.0293 0.0164-0.0511 0.0254-0.084 0.0418-0.1583 0.0954-0.33378 0.13476-0.42578 0.0361-0.0837 0.0391-0.10485 0.0371-0.12305s-0.0243-0.0701-0.0879-0.17578c-0.19546-0.3246-0.27162-0.57492-0.29102-0.94726-0.0211-0.40532 0.0279-0.66743 0.19532-1.0059 0.35322-0.71385 1.0829-1.1657 1.9297-1.2207v-0.0215l0.0293 0.0176c0.006 0 0.0116-0.004 0.0176-0.004 0.36346-0.017 0.57787 0.0265 0.85156 0.14453-0.11375-0.2137-0.2361-0.4479-0.2832-0.59765-0.0133-0.0423-0.0314-0.0858-0.0469-0.11524-0.004-0.008-0.007-0.0106-0.01-0.0156-0.0105-0.003-0.0436-0.0125-0.10156-0.0195-0.0673-0.008-0.15365-0.0127-0.24805-0.0137h-0.0273zm6.7832 0c-0.49273 0.0113-0.93624 0.1666-1.4551 0.50781-0.20191 0.13281-0.59714 0.50407-2.0957 1.9942-0.50546 0.50261-0.98145 0.97072-1.3418 1.3203-0.18017 0.17479-0.33153 0.32036-0.44336 0.42578-0.0559 0.0527-0.10122 0.0949-0.13672 0.12695-0.0355 0.032-0.0508 0.048-0.084 0.0703-0.23399 0.15706-0.53995 0.30491-0.78125 0.375-0.29172 0.0848-0.77917 0.0592-1.123-0.0351-0.0533-0.0146-0.0785-0.0175-0.10156-0.0215l-0.002 0.004c-0.0136 0.0388-0.029 0.0938-0.043 0.1543-0.028 0.12098-0.0488 0.26544-0.0488 0.33984 0 0.08 0.007 0.0868 0.01 0.0898s0.0485 0.029 0.16016 0.0527c0.5134 0.10908 0.92058 0.1 1.3398-0.0215 0.32685-0.0947 0.69086-0.27933 1.0254-0.52539 0.0536-0.0395 0.30077-0.26277 0.64844-0.59765 0.34767-0.33487 0.81072-0.7909 1.3516-1.3301 0.48276-0.48128 0.93601-0.92854 1.2754-1.2617 0.16967-0.16658 0.31059-0.3046 0.41406-0.4043 0.0517-0.0498 0.0931-0.0893 0.125-0.11914 0.0318-0.0298 0.0442-0.0436 0.0723-0.0644 0.21621-0.16051 0.53808-0.32964 0.77149-0.40234 0.31517-0.0975 0.77432-0.0903 1.1426 0.004 0.0571 0.0146 0.10683 0.0242 0.14843 0.0312 0.004-0.0106 0.007-0.017 0.01-0.0293 0.0177-0.0633 0.0357-0.14783 0.0508-0.23243 0.0152-0.0846 0.0272-0.17038 0.0332-0.23828 0.004-0.0532 0.002-0.076 0.004-0.082-0.0188-0.009-0.0489-0.0222-0.0957-0.0351-0.10385-0.0288-0.26651-0.0578-0.47657-0.0801-0.0879-0.009-0.17903-0.0117-0.26953-0.0137l-0.084-0.002zm2.1797 0.85938c-0.006 0.0216-0.0135 0.0394-0.0195 0.0625-0.0316 0.12317-0.088 0.30957-0.13476 0.43359l-0.002 0.002-0.0527 0.14454 0.125 0.2207c0.21551 0.37595 0.30039 0.72393 0.27149 1.125-0.0644 0.89663-0.65702 1.6234-1.5488 1.9062-0.50494 0.16016-1.0292 0.14784-1.4668-0.0312 0.0824 0.15084 0.17812 0.34865 0.23242 0.49023 0.0269 0.0702 0.0559 0.13916 0.0781 0.18946 0.008 0.0194 0.0155 0.0322 0.0215 0.0449 0.007 0.002 0.0247 0.0106 0.0547 0.0156 0.0587 0.01 0.14423 0.0166 0.24023 0.0176 0.19208 0.002 0.43263-0.015 0.63868-0.0508 0.5695-0.0989 1.2729-0.48967 1.6816-0.9375 0.23536-0.25789 0.45923-0.64125 0.57226-0.97852 0.0794-0.23611 0.08-0.26009 0.082-0.75586 0.002-0.58954-0.0323-0.75683-0.23632-1.1641-0.084-0.16763-0.23456-0.38574-0.37305-0.55468-0.0609-0.0743-0.11576-0.13239-0.16406-0.17969zm-8.9961 0.15234-0.01 0.002c-0.1544 0.003-0.32001 0.0313-0.50391 0.082 0.009 0.0165 0.0112 0.0289 0.0625 0.11328 0.2555 0.4206 0.60107 0.65017 1.166 0.76562 0.0961 0.0197 0.42349 0.0419 0.70703 0.0449 0.1038 0.001 0.18893-0.004 0.27343-0.006-0.0606-0.0651-0.12347-0.13093-0.20507-0.21093-0.58804-0.57603-1.002-0.79702-1.4902-0.79102zm6.9394 0.004c-0.35478-0.009-0.74512 0.12801-1.125 0.41211-0.0864 0.0646-0.3048 0.2702-0.48437 0.45312-0.05 0.051-0.0848 0.0897-0.12695 0.13477 0.079 0.002 0.1536 0.004 0.25 0.004 0.39926-0.0005 0.57818-0.0134 0.79101-0.0605 0.38103-0.0842 0.62115-0.20324 0.83399-0.40625 0.0811-0.0773 0.18352-0.20588 0.26172-0.32032 0.0353-0.0518 0.0646-0.0993 0.0859-0.13867-0.0687-0.0203-0.18037-0.0435-0.33789-0.0664-0.0446-0.007-0.0916-0.01-0.14453-0.0117h-0.002-0.002zm-7.8887 0.20117c-0.0183 0.006-0.0231 0.005-0.0605 0.0254-0.0613 0.0334-0.13628 0.0827-0.20508 0.13477-0.0688 0.0521-0.13348 0.10784-0.17578 0.15234-0.0157 0.0165-0.0233 0.0282-0.0312 0.0391 0.006 0.0145 0.0125 0.0316 0.0234 0.0527 0.0276 0.0536 0.0678 0.12054 0.11133 0.18554 0.47198 0.70565 1.0492 1.0386 2.125 1.209h0.002c-0.0109-0.002 0.0241 0.002 0.0664 0.004 0.0426 0.002 0.10017 0.004 0.16797 0.006 0.13564 0.003 0.31401 0.005 0.49805 0.006l0.61328 0.004 0.17969-0.16992c0.0649-0.0611 0.11276-0.10486 0.13476-0.13086-0.003-0.005-0.003-0.006-0.008-0.0117-0.0271-0.0309-0.0779-0.0798-0.14844-0.14649l-0.13867-0.1289h-0.49414c-0.70267 0-1.2172-0.0614-1.625-0.23047-0.40777-0.16903-0.69911-0.45029-0.93555-0.84961-0.0351-0.0593-0.0714-0.11399-0.0996-0.15039zm-166.14 0.25781c-0.0882 0.001-0.1339 0.0125-0.14258 0.0352-0.0291 0.0758 0.0417 0.82274 0.10938 1.1582 0.40763 2.0197 1.8496 3.2771 3.9648 3.459 0.14222 0.0122 0.30407 0.0215 0.35938 0.0195l0.0996-0.004-0.004-0.35937c-0.0104-0.82057-0.30519-1.7335-0.79492-2.457-0.24203-0.35759-0.73762-0.84626-1.0996-1.0859-0.61889-0.40976-1.2961-0.64928-2.0938-0.73828-0.17816-0.0199-0.31023-0.0286-0.39844-0.0274zm9.4883 0c-0.33141 0.002-1.0117 0.11483-1.4336 0.25586-0.81059 0.27101-1.5455 0.77474-2.0449 1.4023-0.48068 0.60409-0.80943 1.3979-0.92774 2.2461-0.0465 0.33348-0.0581 0.72507-0.0234 0.75976 0.0257 0.0257 0.41824-0.002 0.82617-0.0566 1.0231-0.13936 1.871-0.54283 2.5312-1.2031 0.73635-0.73636 1.1487-1.7016 1.25-2.9258 0.018-0.21758 0.0236-0.4157 0.0137-0.44141-0.0103-0.0268-0.0809-0.0379-0.19141-0.0371zm186.89 0.21875c0.81514 0.0541 1.506 0.66936 2.2715 1.8828 0.71966 1.141 0.70668 2.0825-0.0371 3.2637-1.676 2.6614-4.0147 2.5387-5.2969-0.27539-1.0059-2.2077-0.91714-2.7168 0.66406-3.873 0.79588-0.582 1.4547-0.91418 2.041-0.98633 0.12214-0.015 0.24097-0.0195 0.35742-0.0117zm-20.711 0.0644c-0.002 0.001-0.004 0.003-0.006 0.004l0.0312 0.13477c0.001-0.00073 0.00086 0.001 0.006 0 0.004-0.00098 0.00091-0.00096 0.004-0.002l-0.0352-0.13672zm0 0.2129c-0.19156 0.25832-0.41189 0.53285-0.57031 0.68554l-0.0859 0.082 0.0957 0.0937c0.11059 0.10916 0.24766 0.26044 0.36718 0.4043 0.0874 0.10522 0.14122 0.18563 0.19532 0.26563 0.003-0.005 0.005-0.01 0.008-0.0156 0.13663-0.27071 0.18592-0.46722 0.18555-0.74219-0.0004-0.28346-0.0409-0.45705-0.16602-0.71875-0.0132-0.0277-0.0187-0.0342-0.0293-0.0547zm-10.246 0.008c-0.0135 0.0224-0.0219 0.0323-0.0391 0.0645-0.17085 0.32062-0.21514 0.7371-0.11524 1.1211 0.0103 0.0397 0.0702 0.1814 0.12891 0.29296 0.008 0.0149 0.0135 0.0231 0.0215 0.0371 0.0136-0.0197 0.0249-0.033 0.0391-0.0547 0.0924-0.14083 0.27858-0.36022 0.43554-0.51954 0.0686-0.0696 0.12703-0.13144 0.17383-0.18164-0.0164-0.015-0.0282-0.0265-0.0469-0.043-0.0989-0.087-0.23344-0.23973-0.36133-0.39453-0.10338-0.12513-0.17603-0.22696-0.23633-0.32226zm-186.62 0.0371c0.61984 0.0304 1.2754 0.25385 1.9219 0.72656 1.4973 1.0949 1.5881 1.6402 0.625 3.7539-1.2146 2.6658-2.9529 3.1565-4.7695 1.3398-2.4634-2.4634-0.46332-5.9518 2.2226-5.8203zm193.01 0.42383-0.16992 0.16211c-0.0528 0.0507-0.0982 0.0997-0.13281 0.13867 0.0338 0.0381 0.0796 0.0855 0.13086 0.13476l0.16601 0.16211h0.49414c0.68799 0.0001 1.09 0.0444 1.4531 0.16797 0.4941 0.16807 0.84272 0.46236 1.125 0.94531 0.0292 0.0499 0.0549 0.0864 0.0762 0.11328h0.002c0.0399-0.0206 0.0925-0.0512 0.14258-0.084 0.12907-0.0846 0.22769-0.16541 0.28321-0.22461 0.0223-0.0239 0.0311-0.0404 0.0391-0.0527-0.0271-0.069-0.13373-0.24367-0.27344-0.41602-0.14666-0.18092-0.32302-0.36438-0.44727-0.45898-0.22246-0.16931-0.6874-0.38311-1.0488-0.47461-0.30735-0.0778-0.38624-0.0851-1.1055-0.0996v0.002l-0.73242-0.0156h-0.002zm-5.3301 0.52539c0.007-0.0003 0.0103-0.004-0.0195 0.0117-0.0228 0.0119-0.1648 0.12572-0.29101 0.25585-0.12631 0.13025-0.25758 0.28392-0.33008 0.39063-0.17461 0.25711-0.36832 0.67496-0.44922 0.96875-0.0546 0.19827-0.0664 0.31495-0.0684 0.74219-0.003 0.60358 0.0231 0.7266 0.24219 1.1816 0.44271 0.91963 1.2916 1.448 2.377 1.4707 0.0153 0.00005 0.0143 0.00007 0.0273 0-0.0546-0.0847-0.12015-0.20665-0.18555-0.3418-0.0765-0.15828-0.12409-0.24734-0.14649-0.27734-0.006-0.009-0.003-0.004-0.002-0.004-0.0605-0.001-0.11439-0.0144-0.17969-0.0332-0.0691-0.0199-0.14531-0.0472-0.22461-0.0781-0.15867-0.0619-0.32313-0.13739-0.43945-0.21289-0.56812-0.36858-0.88958-1.0101-0.89258-1.752-0.002-0.3687 0.0749-0.66037 0.26563-1.0234 0.26364-0.50178 0.6303-0.84136 1.0879-1.0176-0.222-0.0715-0.45726-0.14304-0.59375-0.20703-0.13582-0.0637-0.18603-0.0737-0.17383-0.0742h-0.002-0.002zm4.7637 0.0449c-0.005 0.004-0.006 0.005-0.0117 0.01-0.0564 0.051-0.13093 0.12352-0.20313 0.19532s-0.14401 0.14517-0.19531 0.20117c-0.004 0.004-0.004 0.006-0.008 0.01 0.0337 0.0371 0.0726 0.0793 0.12695 0.13672 0.12834 0.13557 0.30588 0.31938 0.50195 0.51758 0.42089 0.42551 0.67742 0.69984 0.85157 0.93945s0.26237 0.4469 0.33007 0.70118c0.0759 0.28494 0.0622 0.69822-0.0215 1.0254-0.0172 0.0673-0.0312 0.13018-0.043 0.17968 0.0586 0.0195 0.1496 0.0437 0.27149 0.0664 0.16761 0.0309 0.26678 0.043 0.30078 0.041 0.004-0.00005 0.004-0.00036 0.006 0v-0.002c0.0476-0.0726 0.11806-0.35226 0.13476-0.64648s-0.006-0.61806-0.0625-0.81446c-0.0956-0.33158-0.29348-0.72813-0.51758-1.0332-0.0748-0.10178-0.46538-0.52429-0.82617-0.89648-0.1804-0.18609-0.35633-0.36593-0.49023-0.4961-0.0594-0.0578-0.10613-0.10006-0.14453-0.13476zm-2.4844 0.45117c-0.17898 0.001-0.41343 0.009-0.6289 0.0234-0.23109 0.0155-0.45448 0.0437-0.48438 0.0527-0.31806 0.0908-0.55244 0.22332-0.74023 0.4082-0.0833 0.0821-0.1792 0.19866-0.25 0.30274-0.0331 0.0487-0.0594 0.0932-0.0781 0.12891 0.003 0.001 0.002 0.003 0.006 0.004 0.0653 0.024 0.17159 0.0491 0.29102 0.0644 0.21864 0.0282 0.42719 0.0174 0.625-0.0312 0.28617-0.0703 0.85247-0.46074 1.2656-0.91797 0.0169-0.0186 0.017-0.019 0.0312-0.0352h-0.0352-0.002zm3.5508 0.006c0.0184 0.02 0.0288 0.0335 0.0488 0.0547 0.13194 0.13996 0.29569 0.30138 0.40625 0.39648 0.3529 0.30347 0.69181 0.47565 1.0117 0.53125 0.21208 0.0368 0.15444 0.0371 0.43555-0.002 0.13314-0.0185 0.24274-0.0432 0.31054-0.0664-0.0218-0.038-0.0502-0.0845-0.0859-0.13476-0.0797-0.11246-0.18478-0.23916-0.26368-0.31446-0.17583-0.16771-0.44095-0.31433-0.73242-0.39843-0.005-0.002-0.0827-0.0144-0.17578-0.0234-0.0931-0.009-0.21084-0.0164-0.33594-0.0234-0.21795-0.0128-0.44179-0.0185-0.61914-0.0195zm-1.7559 0.22851c-0.0375 0.0335-0.0822 0.0774-0.13086 0.12696h-0.002l-0.16016 0.16211-0.0137 0.67969c-0.0164 0.8351-0.0681 1.116-0.28515 1.5586-0.15334 0.31273-0.48619 0.64142-0.82618 0.83398-0.0429 0.0243-0.0811 0.0508-0.11328 0.0723 0.004 0.007 0.004 0.008 0.008 0.0156 0.0318 0.0602 0.0851 0.14366 0.14257 0.22266 0.0575 0.079 0.11933 0.15618 0.16993 0.20898 0.0164 0.017 0.0269 0.0244 0.0391 0.0352 0.009-0.005 0.0152-0.006 0.0254-0.0117 0.0501-0.028 0.11579-0.0685 0.18359-0.11328 0.12518-0.0827 0.35909-0.27701 0.48828-0.4082 0.16548-0.16806 0.23769-0.27585 0.33399-0.45703v-0.0215l0.008 0.008c0.0218-0.0415 0.0378-0.0633 0.0645-0.11718 0.28404-0.57533 0.36328-1.0003 0.36328-1.9941v-0.50196l-0.16015-0.16992c-0.0487-0.0508-0.095-0.095-0.13281-0.12891h-0.002zm-368.68 0.62794c0.15189-0.005 0.3028 0.003 0.44922 0.0215 2.0499 0.26421 3.468 2.7392 2.3887 4.7559-1.1317 2.1146-3.0677 2.2749-4.6348 0.38671-1.5835-1.908-0.85641-4.6895 1.334-5.1113 0.15661-0.0302 0.311-0.0477 0.46289-0.0527zm571.81 0.0137c0.22088-0.0119 0.41677-0.0115 0.58984 0 1.0384 0.0689 1.2715 0.59465 1.2715 2.0098 0 1.234-0.51096 2.7551-1.1367 3.3809-2.4968 2.4968-5.1119 0.52384-4.3848-3.3086 0.20076-1.0581 1.3159-1.8305 2.9199-2.0156 0.27323-0.0315 0.51935-0.0545 0.74024-0.0664zm-202.42 0.14258c-0.008 0.13486-0.01 0.37864 0.004 0.58203 0.043 0.64431 0.19426 1.0316 0.49219 1.3242 0.0755 0.0741 0.2059 0.1756 0.31836 0.25 0.0405 0.0268 0.0736 0.0425 0.10547 0.0605 0.007-0.0184 0.0145-0.0319 0.0215-0.0527 0.0371-0.10585 0.0546-0.2332 0.0566-0.45898 0.002-0.28125-0.003-0.30866-0.0801-0.50195-0.13925-0.34904-0.33144-0.61848-0.74805-1.0332l-0.16992-0.16992zm-1.459 0.0234c-0.045 0.0418-0.0854 0.0784-0.13672 0.1289-0.17056 0.16797-0.35941 0.37004-0.44531 0.48047-0.29227 0.37565-0.42955 0.77701-0.40625 1.1465 0.008 0.12421 0.0353 0.27502 0.0644 0.38672 0.006 0.0244 0.0116 0.0366 0.0176 0.0566 0.0264-0.0137 0.0506-0.0262 0.0801-0.043 0.36394-0.20705 0.60506-0.52621 0.76172-1.0274 0.0656-0.21143 0.0699-0.26687 0.0703-0.79687 0-0.12761-0.003-0.23323-0.006-0.33203zm6.1172 0.61523l-0.004 0.004-0.002 0.12695 0.0117-0.11328v-0.01c-0.002-0.004-0.004-0.005-0.006-0.008zm-0.12305 0.19727c-0.0247 0.0137-0.0455 0.0245-0.0723 0.041-0.13628 0.084-0.31709 0.18122-0.4336 0.22852-0.0467 0.019-0.0781 0.033-0.0918 0.041s-0.0116 0.007-0.0156 0.0137c-0.009 0.0146-0.0326 0.0935-0.0664 0.26367-0.0723 0.3639-0.37049 0.808-0.68555 1.0469-0.3587 0.27196-0.87877 0.45122-1.3203 0.44922-0.66006-0.002-1.4705-0.41027-1.8477-0.93554-0.0712-0.0991-0.14788-0.26488-0.20898-0.41602-0.0484 0.16978-0.12502 0.39072-0.19532 0.54102-0.0377 0.0806-0.066 0.13822-0.0781 0.17382-0.012 0.0355-0.009 0.0399-0.008 0.0449 0.002 0.0102 0.0535 0.0843 0.20312 0.24023 0.46475 0.48456 1.0834 0.80049 1.793 0.91211 0.23338 0.0367 0.82379 0.005 1.0801-0.0606 0.78833-0.20161 1.4865-0.82746 1.7734-1.5918v-0.002c0.0639-0.16989 0.12635-0.46405 0.15624-0.71289 0.0126-0.1082 0.0166-0.20094 0.0176-0.27734zm-7.2383 0.13281c-0.14574 0.0805-0.33714 0.17438-0.49609 0.23438-0.0924 0.0349-0.15877 0.0587-0.19727 0.0781-0.0386 0.0194-0.0429 0.0262-0.0469 0.0332-0.008 0.0134-0.0224 0.11018-0.0234 0.34375-0.006 0.83678 0.35961 1.6704 0.98437 2.2461 0.37994 0.35007 0.75982 0.54216 1.3223 0.66211 0.33855 0.0722 0.48828 0.0728 0.81055 0.0117 0.6042-0.11457 1.0736-0.35293 1.4922-0.75782 0.0251-0.0248 0.015-0.0134 0.0313-0.0332-0.027-0.008-0.0422-0.0109-0.0781-0.0215-0.0841-0.0249-0.18651-0.0573-0.28906-0.0898l-0.30274-0.0937-0.0625 0.043c-0.20207 0.13957-0.53797 0.28564-0.77539 0.33594-0.80021 0.16929-1.6779-0.23651-2.1562-0.97656-0.26902-0.41615-0.42197-1.0661-0.35547-1.5371 0.0181-0.12808 0.0798-0.31676 0.14258-0.47852zm6.1426 0.375c-0.0381 0.005-0.0715 0.0106-0.11523 0.0176-0.18399 0.028-0.48115 0.0485-0.68555 0.0488h-0.20703l-0.002 0.24023c-0.0007 0.22111-0.019 0.50716-0.0488 0.67188-0.005 0.0312-0.0106 0.054-0.0156 0.082 0.0322-0.007 0.0602-0.0115 0.0937-0.0215 0.29611-0.0861 0.71611-0.43776 0.85938-0.72461 0.0356-0.0713 0.0842-0.20014 0.11914-0.30664 0.001-0.003 0.00098-0.003 0.002-0.006v-0.002zm-8.3203 0.008c0.0305 0.0944 0.0765 0.20974 0.12304 0.30274 0.10009 0.20003 0.30038 0.42514 0.49024 0.55078 0.0773 0.0511 0.1945 0.10904 0.30273 0.15234 0.0706 0.0282 0.10775 0.036 0.15235 0.0469-0.0464-0.33108-0.0836-0.70167-0.084-0.91602v-0.0742l-0.37695-0.0156c-0.14395-0.006-0.28699-0.0144-0.40625-0.0234-0.0895-0.007-0.14497-0.0144-0.20117-0.0234zm4.1641 1.3691-0.1543 0.1504c-0.15298 0.14796-0.37866 0.33964-0.51953 0.44335-0.031 0.0228-0.0504 0.0417-0.0762 0.0625 0.021 0.0114 0.0371 0.0214 0.0606 0.0332 0.10718 0.0539 0.23642 0.10734 0.29492 0.12304 0.19708 0.052 0.54019 0.0514 0.76953-0.006 0.0829-0.0207 0.21338-0.0716 0.32031-0.12304 0.0245-0.0118 0.0411-0.0218 0.0625-0.0332-0.22526-0.15035-0.57264-0.43875-0.73047-0.6211l-0.002-0.002-0.0254-0.0273zm-299.83 0.50196c0.61986 0.0304 1.2793 0.25386 1.9258 0.72656 1.4973 1.0949 1.5842 1.6402 0.62109 3.7539-1.2146 2.6658-2.9529 3.1565-4.7695 1.3398-2.4634-2.4634-0.46338-5.9518 2.2227-5.8203zm433.21 0c2.686-0.13148 4.6861 3.3569 2.2227 5.8203-1.8167 1.8167-3.5549 1.3259-4.7695-1.3398-0.96309-2.1137-0.87039-2.659 0.62695-3.7539 0.64644-0.4727 1.3001-0.6962 1.9199-0.72656zm-175.36 3.9629c17.329 0 34.659 0.48865 35.469 1.4648 0.73372 0.88387 1.0029 5.3287 0.82422 13.51l-0.26562 12.195-10.904 0.47266-10.9 0.47265-0.47656 45.039-0.47461 45.033-13.055 0.26758c-9.9246 0.20061-13.164-0.0299-13.51-0.95118-0.24992-0.66663-0.56492-21.053-0.69531-45.301l-0.23437-44.088-10.904-0.47265-10.904-0.47266-0.26562-12.195c-0.17857-8.181 0.0966-12.626 0.83007-13.51 0.81015-0.97619 18.138-1.4648 35.467-1.4648zm-43.086 1.0723-0.26562 13.523-0.26172 13.52-21.332 0.47852-21.336 0.47265v8.0566 8.0605l16.053 0.25977c10.082 0.16378 16.524 0.65869 17.328 1.3262 0.9821 0.81498 1.2178 3.953 1.0156 13.482l-0.26172 12.43-17.066 0.47265-17.068 0.47266-0.47265 22.283-0.47266 22.277-13.057 0.26758c-9.9209 0.20055-13.165-0.0302-13.518-0.95118-0.25505-0.66663-0.35594-27.024-0.2207-58.572l0.24804-57.363 35.342-0.24805 35.346-0.24805zm177.89 4.752c7.0078 0.0251 6.9414-0.24561 6.9414 27.994 0 24.763-0.0185 25.017-2.1055 26.479-3.062 2.1448-71.903 2.2337-74.041 0.0957-1.0896-1.0896-1.5296-6.0992-2.0781-23.652-0.38275-12.25-0.4204-23.379-0.082-24.727 0.33831-1.348 1.5639-2.8014 2.7226-3.2285 1.775-0.65422 56.285-3.005 68.643-2.9609zm-350.67 0.14062c4.6918-0.0747 13.189 0.18544 29.314 0.72852 18.645 0.62795 35.081 1.368 36.52 1.6426 1.4384 0.27461 3.0356 1.2916 3.5527 2.2578 1.0552 1.9718 1.1478 29.366 0.13867 41.508-0.44486 5.352-1.1055 8.1559-2.0606 8.7598-0.80635 0.5099-16.436 0.89309-36.721 0.90234-34.063 0.014-35.384-0.0558-37.213-1.8848-1.7984-1.7984-1.8984-3.1585-1.8984-26.398 0-23.275 0.0988-24.588 1.8945-26.213 0.89927-0.81382 1.7809-1.2281 6.4727-1.3027zm0.28515 3.8359c-2.2948 0.0665-3.1956 0.39192-3.7344 1.041-0.85763 1.0333-1.0929 7.165-0.9043 23.559l0.25586 22.16 11.379 0.52343c24.519 1.1215 57.401 0.95847 57.791-0.28515 0.77026-2.4564 1.2067-42.256 0.47657-43.438-0.57202-0.92551-6.4291-1.4117-23.355-1.9375-12.425-0.38599-27.516-0.98863-33.537-1.3398-2.2609-0.13191-4.0882-0.22181-5.5723-0.26562-1.113-0.0328-2.0339-0.0397-2.7988-0.0176zm346.91 0.16211c-3.2501-0.0179-8.2542 0.1686-15.787 0.55469-10.833 0.55528-24.412 1.013-30.172 1.0176-5.7601 0.004-12.068 0.27638-14.023 0.59961l-3.5566 0.58594v22.08c0 16.733 0.28726 22.213 1.1855 22.635 1.5017 0.70522 66.883-0.16886 68.082-0.91016 0.51322-0.31719 0.89257-9.9072 0.89257-22.658-0.00001-18.018-0.25206-22.315-1.3574-23.232-0.51874-0.43053-2.0136-0.65394-5.2637-0.67187zm108.24 1.668c6.3249 0.0314 7.8629 0.48394 8.7617 1.3828 1.2792 1.2791 1.4922 5.0316 1.4922 26.498 0 24.763-0.0224 25.017-2.1094 26.479-3.0083 2.1072-71.895 2.2343-73.992 0.13672-1.3587-1.3587-2.581-20.216-2.5879-39.959-0.003-13.103-2.4366-12.053 30.965-13.379 20.036-0.79528 31.146-1.1895 37.471-1.1582zm-563.39 0.0664c4.8276-0.0647 13.571 0.21665 30.113 0.78516 19.179 0.65914 35.82 1.5521 36.979 1.9844 1.1587 0.43227 2.3935 1.9292 2.7441 3.3262s0.40613 12.58 0.12695 24.855c-0.45607 20.049-0.67973 22.447-2.2129 23.568-1.339 0.97911-9.3261 1.248-37.078 1.248-34.109 0-35.443-0.0681-37.271-1.8965-1.7984-1.7984-1.8984-3.1585-1.8984-26.398 0-23.178 0.10391-24.596 1.8711-26.195 0.8863-0.80211 1.7993-1.2126 6.627-1.2774zm140.18 1.0859c4.3433 0.12242 8.671 2.2121 12.613 6.2812 5.5654 5.7446 7.3569 11.909 5.6621 19.482-1.2057 5.3878-5.9966 11.906-10.373 14.119-3.4251 1.7322-8.5623 2.4161-11.99 1.5918-14.801-3.5592-20.543-22.881-10.201-34.328 4.1648-4.6099 8.7867-6.9954 13.42-7.1445 0.28957-0.009 0.57959-0.0101 0.86914-0.002zm285.71 0.19531c5.8599 0.17129 11.612 3.5046 15.328 9.2363 6.294 9.7068 3.2474 24.036-6.2617 29.473-3.8135 2.1805-9.5482 3.6595-11.586 2.9844-0.52146-0.17274-2.1146-0.57479-3.5391-0.88867-1.4244-0.31386-4.115-1.909-5.9805-3.5469-12.341-10.836-8.895-31.015 6.2109-36.348 1.9063-0.67299 3.8748-0.96722 5.8281-0.91016zm-423.37 2.7441c-3.6847 0.0216-5.4332 0.23278-5.9199 0.63672-1.0432 0.8658-1.3045 5.4386-1.293 22.539 0.008 11.799 0.34186 21.974 0.74219 22.604 0.45285 0.71249 3.9392 1.2624 9.2285 1.4609 4.676 0.17542 19.929 0.40634 33.895 0.51367 19.624 0.15069 25.474-0.0723 25.758-0.98828 0.80428-2.5998 1.2905-42.136 0.5332-43.361-0.59695-0.96587-3.7734-1.3933-12.027-1.6309-6.1679-0.17751-21.181-0.74993-33.367-1.2715-8.2404-0.35262-13.864-0.52364-17.549-0.50196zm560.11 0c-3.6847-0.0217-9.3085 0.14929-17.549 0.50196-12.186 0.5215-27.164 1.09-33.281 1.2656-6.1169 0.17554-11.397 0.60168-11.738 0.94336-0.76432 0.76432-0.47174 43.354 0.30664 44.613 0.62875 1.0173 66.778 0.2947 68.465-0.74804 0.68487-0.42328 1.0234-7.944 1.0234-22.742 0-17.644-0.26604-22.33-1.3106-23.197-0.48672-0.40399-2.2313-0.61505-5.916-0.63672zm-530.96 2.666c1.3 0.001 2.6357 0.36809 4.9688 1.1035 13.991 4.4103 18.991 22.989 9.127 33.908-1.867 2.0666-4.4892 4.3115-5.832 4.9902-5.0453 2.5502-11.813 2.4868-16.666-0.16211-5.8153-3.1739-10.9-11.918-10.9-18.734 0-8.5414 6.3618-17.298 14.543-20.016 2.195-0.72896 3.4597-1.0917 4.7598-1.0898zm501.78 0.23438c1.5817 0.0487 3.2189 0.33276 4.8867 0.88671 9.1046 3.0241 13.915 9.913 13.953 19.984 0.021 5.5752-0.39403 7.3532-2.6055 11.115-1.6365 2.784-4.1513 5.3443-6.6406 6.7676-8.9617 5.124-16.975 3.7122-23.73-4.1797-11.536-13.477-1.153-35.046 14.137-34.574zm-393.78 2.2578c-2.2777 0.0702-4.5386 1.3374-7.0098 3.8086-3.3344 3.3344-3.6836 4.1455-3.6836 8.623 0 5.5588 1.8112 9.3687 5.5664 11.699 4.1448 2.5724 8.2194 2.0219 12.227-1.6504 3.41-3.1249 3.543-3.4787 3.543-9.5527s-0.13307-6.4317-3.543-9.5566c-2.5282-2.3169-4.8219-3.4414-7.0996-3.3711zm285.98 0.21679c-9.6936-0.14334-15.861 14.39-7.127 22.395 3.8172 3.4982 7.4769 4.0116 11.99 1.6777 7.9592-4.1159 7.6106-19.347-0.52734-23.055-1.4956-0.68145-2.9511-0.99708-4.3359-1.0176zm-394.09 5.4766c-2.2692 0.0877-4.5352 1.3535-6.9863 3.8047-3.3344 3.3344-3.6836 4.1455-3.6836 8.623 0 5.5587 1.8171 9.3687 5.5723 11.699 8.0986 5.0261 17.026-2.1957 15.994-12.938-0.38349-3.9912-1.0288-5.3067-3.8867-7.9258-2.4673-2.2612-4.7406-3.3513-7.0098-3.2637zm501.66 0.17187c-9.123 0.16232-15.248 14.526-6.6172 22.436 3.8172 3.4982 7.477 4.0097 11.99 1.6758 7.8522-4.0605 7.8123-17.957-0.0664-22.611-1.8202-1.0752-3.6172-1.5301-5.3066-1.5zm-108.14 0.0137c5.8907-0.1016 9.9262 7.1802 5.3613 12.08-3.5299 3.7888-10.454 1.9458-11.727-3.123-0.69305-2.7613 1.4314-7.5415 3.7461-8.4297 0.8976-0.34445 1.7776-0.51284 2.6191-0.52735zm-285.61 0.0449c0.21693-0.005 0.43218 0.00067 0.64648 0.0176 5.1432 0.40577 9.3712 6.9472 4.6562 11.662-3.0925 3.0925-7.1665 3.1899-9.9394 0.23828-2.7383-2.9149-2.6816-7.3246 0.13086-9.9668 1.4183-1.3324 2.9874-1.9164 4.5059-1.9512zm-107.82 5.5801c5.7152 0 8.9709 7.0521 5.3691 11.631-3.9591 5.0332-12.33 2.0546-12.33-4.3867 0-3.2309 3.8553-7.2441 6.9609-7.2441zm501.52 0.0645c5.8907-0.10161 9.9262 7.1841 5.3613 12.084-3.5298 3.7888-10.458 1.9419-11.73-3.127-0.69308-2.7613 1.4353-7.5415 3.75-8.4297 0.89758-0.34446 1.7776-0.51282 2.6191-0.52734zm-395.35 38.16c0.77671-0.0225 1.5532-0.0222 2.3281 0.002 10.332 0.32223 20.416 4.7782 27.957 12.924 13.428 14.504 16.44 34.331 7.8672 51.752-4.226 8.588-12.072 16.547-20.316 20.609-5.4328 2.6767-7.3692 3.113-14.809 3.3398-7.0659 0.2156-9.6506-0.13009-14.822-1.9922-13.58-4.8894-22.08-13.893-26.557-28.133-6.6076-21.017 3.2966-45.217 22.311-54.52 5.1474-2.5184 10.604-3.8246 16.041-3.9824zm288.26 0.01c11.032-0.15196 21.76 4.6899 30.027 13.695 5.9063 6.434 9.3364 13.799 11.053 23.744 1.2235 7.0902 1.2126 8.7903-0.0996 15.227-3.5954 17.634-13.704 29.582-29.084 34.369-6.7171 2.0906-17.389 2.2821-23.348 0.41992-10.145-3.1705-20.235-12.216-25.434-22.803-13.393-27.274 3.0154-60.081 32.143-64.277 1.5821-0.22792 3.1661-0.35327 4.7422-0.375zm108.18 5.623c10.091 0 20.203 4.1695 28.545 12.508 6.9152 6.9118 10.547 14.111 12.365 24.523 3.6337 20.815-7.5976 41.916-26.178 49.178-3.6326 1.4198-7.9482 2.1438-14.223 2.3926-7.8909 0.31282-9.686 0.071-14.479-1.9473-19.456-8.1936-31.111-29.807-26.984-50.043 2.058-10.092 5.8249-17.336 12.531-24.104 8.2629-8.3383 18.331-12.508 28.422-12.508zm-502 0.0351c9.809 0.21752 19.718 4.254 27.799 12.982 9.7496 10.531 14.411 25.066 12.227 38.129-2.4668 14.749-11.915 27.892-24.51 34.098-5.6797 2.7983-7.4692 3.206-15.006 3.4082-6.3141 0.16943-9.9842-0.2355-13.998-1.5508-17.89-5.8622-29.273-22.331-29.234-42.293 0.0528-27.24 21.143-45.252 42.723-44.773zm107.03 4.6562c-0.63428 0.001-1.2722 0.0241-1.916 0.0684-14.018 0.96641-24.789 10.359-28.896 25.195-2.2327 8.0653-0.94971 17.593 3.5625 26.482 4.6458 9.1529 11.852 14.147 24.049 16.67 6.0005 1.2412 16.362-2.3027 22.273-7.6172 6.2204-5.5926 9.2163-10.833 10.955-19.172 4.4846-21.508-10.365-41.678-30.027-41.627zm287.2 0.12696c-4.496-0.0858-8.9243 0.69012-12.289 2.3476-7.0898 3.4926-12.501 8.8946-15.57 15.543-2.5202 5.4581-2.7637 6.8925-2.7637 16.41 0 9.649 0.21092 10.84 2.7773 15.908 4.7351 9.3505 13.002 15.798 22.732 17.721 11.966 2.3644 26.043-4.7565 31.674-16.025 1.5959-3.1938 3.4053-8.2352 4.0215-11.203 3.1324-15.089-4.5267-31.322-17.871-37.875-3.6482-1.7915-8.2149-2.7403-12.711-2.8262zm-312.69 3.5566c-0.41375 0-0.82437 0.35173-1.5312 1.0586-0.84394 0.84391-1.2458 2.0027-0.89258 2.5742 0.35323 0.5715 1.4424 1.0371 2.4238 1.0371 2.5532 0 3.3252-1.8193 1.5332-3.6113-0.70688-0.70686-1.1195-1.0586-1.5332-1.0586zm337.53 0c-0.41375 0-0.8244 0.35169-1.5312 1.0586-0.84394 0.84389-1.2458 2.0027-0.89258 2.5742 0.35321 0.5715 1.4425 1.0371 2.4238 1.0371 2.5532 0 3.3291-1.8193 1.5371-3.6113-0.70687-0.7069-1.1234-1.0586-1.5371-1.0586zm-24.742 1.2578c4.1617-0.0183 8.2526 0.69913 10.994 2.1582 5.5212 2.9384 10.812 8.5733 13.641 14.529 3.2931 6.9341 3.4907 18.118 0.4375 24.768-2.7991 6.0963-8.1048 11.662-13.848 14.523-10.105 5.0358-23.825 2.4414-31.141-5.8906-13.595-15.483-9.4113-39.001 8.5098-47.83 3.0132-1.4846 7.2446-2.2394 11.406-2.2578zm-287.64 0.0859c3.9962 0.004 8.0099 0.69585 11.025 2.0723 22.409 10.228 22.024 44.154-0.61719 54.475-2.5165 1.1472-6.0238 1.7305-10.428 1.7305-13.223 0-22.579-7.5026-26.6-21.332-3.9055-13.435 3.1259-29.074 15.695-34.904 2.948-1.3674 6.9276-2.047 10.924-2.041zm-108.21 0.55859c-18.264 0.25112-34.32 18.546-30.865 39.17 0.62154 3.7101 2.5058 9.4777 4.1914 12.834 4.5086 8.977 11.762 13.986 23.937 16.521 1.043 0.21719 1.9224 0.44344 1.957 0.50391 0.0346 0.0605 2.5933-0.34846 5.6875-0.91016 6.9925-1.2694 12.135-4.1937 17.383-9.8867 16.252-17.631 9.732-48.211-12.027-56.416-3.4235-1.291-6.8816-1.8629-10.264-1.8164zm503.56 0.40039c-8.7467 0-13.658 1.9139-20.625 8.0469-10.372 9.1299-13.476 28.161-6.8691 42.127 4.1772 8.8298 12.996 15.676 22.66 17.586 12.094 2.3898 26.149-4.801 31.76-16.252 7.2868-14.87 5.6879-30.384-4.2695-41.459-6.3322-7.043-13.107-10.049-22.656-10.049zm-368.82 0.47461c-2.0337 0-2.8443 2.5534-1.373 4.3262 1.0654 1.2836 1.3759 1.2882 2.6055 0.0586 1.6497-1.6496 0.88089-4.3848-1.2324-4.3848zm234.04 0.13477c-0.12162-0.002-0.24007 0.007-0.35352 0.0254v0.002c-1.5882 0.26349-2.269 2.4782-0.95898 4.0566 0.61793 0.74453 1.7518 1.1125 2.5234 0.81641 1.8918-0.72595 1.2505-4.4621-0.83398-4.8594-0.13036-0.0248-0.25534-0.0391-0.37695-0.041zm-258.96 1.8027c-0.68939 0-1.0547 0.30268-0.68164 0.90625 0.32229 0.52148 1.5216 0.94053 2.6641 0.93359 1.6888-0.0121 1.8105-0.18641 0.65429-0.93359-0.93395-0.60357-1.9473-0.90625-2.6367-0.90625zm284.02 0c-0.68935 0-1.7067 0.30268-2.6406 0.90625-1.1562 0.74712-1.0345 0.92207 0.65429 0.93359 1.1425 0.008 2.3418-0.41211 2.6641-0.93359 0.37304-0.60357 0.0113-0.90625-0.67774-0.90625zm-418.87 0.97461c-0.41376 0-0.82438 0.35173-1.5312 1.0586-0.84392 0.84389-1.2458 2.0027-0.89258 2.5742 0.35319 0.57149 1.4424 1.0371 2.4238 1.0371 2.5532 0 3.3292-1.8193 1.5371-3.6113-0.70688-0.70686-1.1234-1.0586-1.5371-1.0586zm553.7 0c-0.41374 0-0.82439 0.35173-1.5312 1.0586-0.84393 0.84389-1.2458 2.0027-0.89258 2.5742 0.35321 0.57149 1.4424 1.0371 2.4238 1.0371 2.5532 0 3.3252-1.8193 1.5332-3.6113-0.70686-0.70686-1.1195-1.0586-1.5332-1.0586zm-528.33 1.2207c9.8098 0.0312 19.624 5.4678 24.879 16.291 1.858 3.8269 2.2834 6.1967 2.2949 12.758 0.0122 7.0134-0.34754 8.7753-2.7422 13.564-3.1022 6.2041-8.3058 11.369-14.113 14.006-4.8616 2.2076-15.735 2.3784-20.471 0.32422-15.286-6.6308-22.109-25.564-14.705-40.809 5.2406-10.79 15.048-16.166 24.857-16.135zm503.21 0.15821c11.251 0.0394 19.885 5.7573 25.02 16.566 3.557 7.4874 3.4729 18.116-0.20703 25.754-2.9068 6.033-8.4026 11.485-14.25 14.141-6.0516 2.748-15.992 2.4721-22.184-0.61328-17.517-8.7289-21.44-34.403-7.3516-48.086 5.6827-5.519 11.223-7.789 18.973-7.7617zm-476.9 1.3965c-2.0337 0-2.8463 2.5515-1.375 4.3242 1.0654 1.2836 1.3759 1.2921 2.6055 0.0625 1.6497-1.6496 0.8829-4.3867-1.2305-4.3867zm450.21 0.13672c-0.12161-0.002-0.24008 0.007-0.35351 0.0254v0.002c-1.5882 0.26347-2.269 2.4782-0.95899 4.0566 0.61793 0.74451 1.7518 1.1106 2.5234 0.81446 1.8918-0.72598 1.2505-4.4621-0.83398-4.8594-0.13036-0.0248-0.25534-0.0371-0.37696-0.0391zm-80.381 1.2598c-0.3551-0.006-0.71004-0.001-1.0644 0.0156-9.9235 0.47056-19.356 9.8168-19.379 20.461-0.0179 8.2638 6.9414 17.344 14.861 19.385 8.8351 2.2768 17.335-1.1191 21.783-8.709 7.2905-12.44 0.85692-27.656-13.01-30.771-1.0588-0.2379-2.1261-0.36196-3.1914-0.38085zm-288.88 0.1875c-15.687-0.0144-25.04 17.869-16.352 31.27 2.9442 4.5406 7.1862 7.5687 12.217 8.7148 15.097 3.4396 28.674-12.802 22.693-27.143-1.735-4.1598-6.3905-9.2453-10.381-11.342-1.6063-0.8439-5.1646-1.4977-8.1777-1.5zm-105.82 0.35937c-0.71625 0-1.1992 0.30293-1.1992 0.90234 0 0.52146 1.1715 0.94052 2.6055 0.9336 2.0318-0.0122 2.2938-0.21742 1.1856-0.9336-0.92751-0.59941-1.8756-0.90234-2.5918-0.90234zm500.1 0c-0.71622 0-1.6643 0.30293-2.5918 0.90234-1.1082 0.71618-0.84624 0.92207 1.1855 0.9336 1.434 0.008 2.6055-0.41214 2.6055-0.9336 0-0.59941-0.48295-0.90234-1.1992-0.90234zm-502 5.0859c-1.0346-0.0479-2.0588 0.008-3.0488 0.18164-5.4384 0.94899-11.147 4.7838-13.762 9.2461-7.2458 12.364-1.0974 27.742 12.311 30.797 15.096 3.4395 28.673-12.792 22.697-27.137-3.0231-7.2568-10.955-12.753-18.197-13.088zm504.7 0.0605c-0.35492-0.006-0.71047 0.00056-1.0644 0.0176-9.9116 0.47665-19.379 9.8214-19.379 20.389 0 8.4199 6.7377 17.328 14.727 19.469 12.368 3.3146 23.809-5.0331 24.898-18.17 0.82276-9.9215-6.0556-19.095-15.994-21.328-1.0558-0.23723-2.1227-0.35923-3.1875-0.37696zm-106.06 1.5313c4.624-0.0322 9.2724 2.3751 11.76 7.998 2.3963 5.4172 1.631 10.041-2.3789 14.406-7.0818 7.7089-19.631 4.5587-22.203-5.5762-2.5265-9.9534 5.1155-16.774 12.822-16.828zm-292.69 0.14648c2.5849 0.0572 5.1635 0.77777 7.2285 2.1309 3.4976 2.2917 6.2847 9.1017 5.4805 13.389-0.73165 3.9001-5.1779 9.463-8.2715 10.35-3.9078 1.12-4.9252 1.1791-8.041 0.45117-11.557-2.7-13.312-19.971-2.5488-25.078 1.5413-0.73136 3.2783-1.1355 5.0449-1.2266 0.36804-0.019 0.73815-0.0238 1.1074-0.0156zm400.21 5.6055c12.06-0.24132 18.593 14.913 8.8535 23.465-1.836 1.612-3.8566 2.9404-4.4902 2.9473-0.63369 0.007-2.0039 0.18951-3.0469 0.41015-5.028 1.0637-12.133-4.015-13.736-9.8223-1.9501-7.0628 3.0228-15.441 9.9356-16.738 0.84994-0.15946 1.6804-0.24561 2.4844-0.26172zm-508.25 0.082c2.5719 0.0728 5.1536 0.79566 7.1914 2.1309 3.4976 2.2917 6.2847 9.1017 5.4805 13.389-0.85073 4.5349-5.3908 9.5646-9.7149 10.766-3.9229 1.0899-3.5005 1.0934-7.1309 0.004-11.175-3.349-12.437-20.1-1.8887-25.105 1.4932-0.70857 3.2087-1.0975 4.9629-1.1758 0.36546-0.0163 0.7322-0.0182 1.0996-0.008zm187.44 21.174c3.2328 0.12366 6.5292 1.8273 8.3086 4.543 2.3749 3.6246 1.0529 4.718-4.873 4.0215-6.8029-0.79954-6.9604 1.4094-0.30273 4.2734 5.0674 2.1799 7.541 5.4021 7.541 9.8398-0.00003 3.9349-2.6983 8.0967-6.1973 9.5586-3.9313 1.6426-4.82 1.6363-8.7188-0.0586-3.3351-1.4499-7.0356-6.5961-6.2383-8.6738 0.74641-1.9451 4.7514-1.5642 7.8789 0.74805 2.2942 1.6961 3.0162 1.8401 4.2285 0.83398 2.3759-1.9718 1.6911-3.7525-2.0957-5.459-6.1831-2.7863-8.7676-5.7932-8.7676-10.188 0-4.8232 1.8919-7.6295 6.0801-9.0117 1.0039-0.33132 2.0786-0.46895 3.1562-0.42773zm54.424 0.0527c2.9883 0.11624 5.9852 1.5226 7.9297 4.4902 2.3749 3.6246 1.049 4.718-4.877 4.0215-4.1778-0.49104-5.0859-0.33727-5.0859 0.84375 0 0.79308 1.7016 2.1194 3.7949 2.957 4.8015 1.9212 8.5293 6.2737 8.5293 9.9609 0 4.2653-2.5842 8.4022-6.1934 9.9102-3.9024 1.6312-4.8439 1.6323-8.502 0.0176-3.6659-1.6181-6.0528-4.3318-6.3789-7.2539-0.36108-3.2353 3.8405-3.674 7.7188-0.80664 2.3623 1.7465 3.0953 1.8996 4.3086 0.89257 2.5594-2.1241 1.6012-3.7879-3.6152-6.2578-5.4198-2.5661-7.5645-5.3484-7.5645-9.8184 0-5.7564 4.9551-9.151 9.9356-8.957zm-38.236 0.34766c3.488 0 3.7168 0.20536 6.3379 5.6894 1.4954 3.1288 3.2205 5.6894 3.8359 5.6894 0.61547 0 1.8784-2.027 2.8047-4.5039 2.285-6.1099 3.0346-6.875 6.748-6.875 2.4444 0 3.1861 0.39171 3.1328 1.6582-0.0385 0.91256-2.7201 8.0608-5.959 15.883l-5.8867 14.223-3.3223 0.2793c-1.8256 0.1552-3.5911 0.0118-3.9219-0.32032-0.33075-0.33074 0.0867-2.4485 0.92383-4.707l1.5195-4.1055-4.9141-10.482c-2.7039-5.7645-4.918-10.917-4.918-11.453 0-0.53595 1.6292-0.97461 3.6191-0.97461zm121.81 0.0996c0.40287-0.0129 0.8385 0.0117 1.3164 0.0664 2.365 0.27187 2.724 0.77561 3.2559 4.5723 0.3287 2.3466 0.75844 9.3889 0.95508 15.646l0.35547 11.379h-3.3164c-3.1241 0-3.3466-0.21295-3.793-3.5898-0.58561-4.431-1.9178-4.9214-3.1328-1.1543-1.4213 4.4068-2.5619 5.3385-6.1836 5.0273-2.9505-0.25344-3.4817-0.73056-4.7832-4.3144-2.0863-5.745-3.0253-5.2603-4.125 2.1328-0.32723 2.2-4.8258 3.1421-6.875 1.4414-0.88215-0.73216-1.4693-0.75134-1.8926-0.0664-0.36524 0.59099-4.6407 0.9961-10.539 0.9961h-9.9219l0.26171-15.881 0.25977-15.883h9.4805 9.4805v3.3184 3.3184l-5.666 0.29297c-5.6652 0.2907-7.3858 1.2606-6.4688 3.6504 0.31457 0.81978 2.1119 1.2715 5.0625 1.2715 3.7426 0 4.6815 0.34729 5.1738 1.8984 0.33104 1.0429 0.33104 2.7481 0 3.791-0.4923 1.5511-1.4313 1.8984-5.1738 1.8984-4.5132 0-5.9274 0.99307-5.0352 3.5508 0.26727 0.76628 2.3746 1.1856 5.9668 1.1856 4.5787 0 5.8055 0.35231 6.9609 2.002 1.3436 1.9182 1.4244 1.8316 1.9121-2.1309 0.27993-2.2742 0.84527-8.6164 1.2578-14.092l0.75196-9.9551h3.7832 3.7812l2.8535 7.9883c1.5691 4.3924 3.345 8.1432 3.9453 8.3398 0.64019 0.20982 2.1321-2.7674 3.6094-7.2031 2.4711-7.4202 3.6624-9.4103 6.4824-9.498zm-70.914 0.37304h9.4805 9.4805v3.3184c0 2.8189-0.35761 3.3698-2.3711 3.6524-1.3037 0.18293-2.6832 0.82456-3.0664 1.4238-0.3831 0.59924-0.70402 6.1032-0.71094 12.23l-0.0137 11.139h-3.3184-3.3184l-0.0137-11.139c-0.008-6.1272-0.32979-11.631-0.71289-12.23-0.38313-0.59927-1.7608-1.2408-3.0645-1.4238-2.0135-0.28252-2.3711-0.83345-2.3711-3.6524v-3.3184zm126.19 2.5215c-0.0638 0.009-0.11522 0.0293-0.15234 0.0664-0.83176 0.83178 5.4761 5.306 9.625 6.8262 2.0385 0.74692 5.4161 1.3406 7.502 1.3164 3.5655-0.0414 3.491-0.0989-1.2305-0.88476-5.5461-0.92311-9.9822-2.8851-13.227-5.8516-0.87845-0.80321-1.7729-1.356-2.291-1.459-0.0863-0.0171-0.16276-0.0222-0.22656-0.0137zm-253.79 0.73828c-0.0471-0.0534-0.33803 0.0868-0.8789 0.43359-5.683 3.6436-9.7498 5.377-14.43 6.1562-4.2736 0.71154-4.5065 0.84874-1.6172 0.94336 4.8172 0.15763 11.398-2.3181 15.178-5.7109 1.2325-1.1065 1.827-1.733 1.748-1.8223zm361.51 4.3496c-0.13249 0.003-0.20313 0.0783-0.20313 0.22656 0 1.5489 5.7045 5.6775 10.039 7.2656 2.0386 0.74691 5.4161 1.3367 7.502 1.3125 3.5655-0.0415 3.491-0.093-1.2305-0.87891-5.8418-0.9723-10.048-2.9161-13.705-6.3379-1.0755-1.0061-2.0051-1.6025-2.4023-1.5879zm-470.03 1.4785c-0.50693 0.0796-1.7575 0.82892-3.582 2.2188-2.7306 2.08-7.4156 3.6495-13.926 4.6621-1.6214 0.25218-1.2574 0.40575 1.1504 0.49414 4.3148 0.15828 13.156-3.0288 15.461-5.5762 1.1638-1.286 1.4034-1.8785 0.89649-1.7988zm404.73 1.0059c-0.12161-0.003-0.23811 0.005-0.35156 0.0234-1.5882 0.26351-2.2709 2.4821-0.96094 4.0606 0.61796 0.74453 1.7538 1.1125 2.5254 0.81641 1.8919-0.72598 1.2505-4.4621-0.83398-4.8594-0.13036-0.0248-0.25729-0.038-0.37891-0.041zm-338.33 0.0312c-1.7137 0.0142-2.6731 2.598-1.375 4.1621 0.56859 0.68421 1.6678 1.0032 2.4394 0.70704 1.8326-0.70324 1.279-4.4586-0.71289-4.8379-0.12051-0.0229-0.23732-0.0322-0.35156-0.0312zm52.592 0.93946c-1.8757 0.0192-3.2537 2.1633-2.2598 3.7715 0.31165 0.50434 1.4853 0.78714 2.6094 0.62695 2.7644-0.39393 2.79-3.9794 0.0312-4.373-0.12891-0.0184-0.25581-0.0267-0.38086-0.0254zm233.39 0.0391c-1.8516 0.0817-3.2334 1.554-2.6426 3.0938 0.87239 2.2734 4.8828 1.529 4.8828-0.90625 0-1.0358-0.63773-1.9959-1.4199-2.1328-0.27931-0.0488-0.55578-0.0664-0.82031-0.0547zm160.42 4.6797c-0.12395-0.002-0.24264 0.009-0.35743 0.0273-1.6071 0.26057-2.2375 2.5048-0.875 4.1465 1.6435 1.9803 3.2812 1.2162 3.2812-1.5312 0-1.4175-0.62801-2.4024-1.6621-2.6016-0.13325-0.0257-0.26278-0.0394-0.38672-0.041zm-554.49 0.0312c-1.7137 0.0142-2.6731 2.598-1.375 4.1621 0.56859 0.68422 1.6678 1.0032 2.4394 0.70703 1.8327-0.70325 1.279-4.4586-0.71289-4.8379-0.12051-0.023-0.23732-0.0322-0.35156-0.0312zm502.15 0.97851c-1.8516 0.0817-3.2334 1.5521-2.6426 3.0918 0.87239 2.2734 4.8828 1.529 4.8828-0.90625 0-1.0358-0.63772-1.994-1.4199-2.1309-0.27929-0.0488-0.55578-0.0662-0.82031-0.0547zm-448.86 0.0176c-1.8006 0.0324-3.9086 2.1827-3.0703 3.5391 0.99778 1.6144 4.6956 0.77644 5.0625-1.1484 0.17425-0.91415-0.38689-1.9332-1.248-2.2637-0.23531-0.0901-0.48691-0.13151-0.74414-0.12695zm141.43 18.836c3.7215 0 6.75 3.0285 6.75 6.75 0.00001 3.7215-3.0285 6.752-6.75 6.752s-6.752-3.0305-6.752-6.752 3.0305-6.75 6.752-6.75zm165.64 0c0.0821 0 0.1634 0.00091 0.2461 0.004 0.61929 0.0229 1.2951 0.14013 1.9043 0.32813 0.21782 0.0672 0.76849 0.28395 0.94532 0.37305 0.45051 0.22705 1.029 0.62943 1.3711 0.95312 0.23415 0.22157 0.60219 0.6732 0.9707 1.1914 0.0312 0.0439 0.11666 0.16489 0.18946 0.26758 0.14517 0.20465 0.46067 0.71517 0.57617 0.93164 0.10385 0.19465 0.321 0.66815 0.3789 0.82812 0.10917 0.30149 0.16323 0.58153 0.17383 0.90235 0.0144 0.43565-0.0413 0.67353-0.22656 0.98242-0.0953 0.15889-0.31838 0.38954-0.49414 0.51172-0.16368 0.1138-0.57883 0.31531-0.79102 0.38281-0.62351 0.19836-1.3553 0.30814-2.252 0.33984-0.26796 0.01-0.39531 0.0223-0.41211 0.0391-0.0457 0.0455-0.0412 0.9024 0.006 1.3691 0.069 0.68302 0.1401 1.0348 0.47266 2.2871 0.0629 0.23689 0.0704 0.27965 0.0644 0.47266-0.005 0.2003-0.0111 0.22238-0.0801 0.36719-0.13602 0.28557-0.29042 0.4373-0.60156 0.59375-0.5648 0.28407-1.6341 0.43017-2.6289 0.35937-0.79602-0.0566-1.5489-0.26758-1.9062-0.5332-0.35663-0.26509-0.54922-0.62889-0.51172-0.9707 0.006-0.0588 0.0509-0.29325 0.0977-0.52149 0.14745-0.71922 0.14849-0.72978 0.24219-1.334 0.0749-0.48361 0.13476-1.2612 0.13476-1.75v-0.2793h-0.10742c-0.10144 0-0.26277-0.009-0.95508-0.0586-0.53676-0.0381-0.87771-0.0928-1.3789-0.22071-0.60587-0.15466-1.0423-0.37808-1.3574-0.69531-0.29271-0.29463-0.4525-0.71187-0.45313-1.1816-0.00063-0.34859 0.10677-0.85946 0.2793-1.332 0.26625-0.72928 0.85891-1.8676 1.2266-2.3574 0.37398-0.49825 0.98065-1.0501 1.4961-1.3594 0.98024-0.58814 2.1488-0.89562 3.3809-0.89062zm1.166 0.83008c-0.0552 0.001-0.1085 0.007-0.1582 0.0156-0.2393 0.0412-0.41773 0.15404-0.48243 0.30469-0.0467 0.10895-0.0341 0.29007 0.0293 0.42187 0.0738 0.15334 0.24629 0.35754 0.39453 0.4668 0.14485 0.10678 0.43834 0.28079 0.5625 0.33399 0.0955 0.0409 0.42499 0.14017 0.57227 0.17187 0.11929 0.0255 0.35091 0.0265 0.50195 0.002 0.43753-0.071 0.60667-0.37309 0.42188-0.75195-0.0729-0.14946-0.34804-0.43536-0.5293-0.55078-0.41988-0.26736-0.92593-0.42496-1.3125-0.41406zm-167.42 0.42187c-2.775 0.30237-4.9258 2.6407-4.9258 5.498 0 1.3123 0.45572 2.5137 1.2148 3.4609l3.7109-3.7129v-5.2461zm1.2168 0v5.2461l3.7109 3.7129c0.75872-0.94727 1.2148-2.1487 1.2148-3.4609 0-2.858-2.1501-5.1966-4.9258-5.498zm162.98 0.0684v0.002c-0.11878-0.0003-0.23988 0.0137-0.33008 0.0449-0.22632 0.0781-0.38408 0.18059-0.5625 0.36328-0.27288 0.27941-0.37674 0.47738-0.43164 0.81836-0.0298 0.1866-0.0298 0.21343-0.002 0.3457 0.0295 0.13962 0.10648 0.28878 0.21093 0.4043 0.0454 0.0502 0.19318 0.13022 0.3125 0.16992 0.12516 0.0417 0.4144 0.0236 0.59961-0.0391 0.18488-0.0625 0.30289-0.13472 0.47852-0.29102 0.16836-0.14982 0.26898-0.28293 0.36328-0.48047 0.0967-0.2025 0.14176-0.41657 0.13086-0.625-0.007-0.13072-0.0205-0.18192-0.0742-0.29101-0.0867-0.17611-0.22752-0.31525-0.37695-0.37305-0.0816-0.0316-0.19959-0.0486-0.31836-0.0488zm3.5469 2.3106c-0.49313 0.004-0.99351 0.18826-1.2383 0.47851-0.19946 0.23652-0.27867 0.42791-0.27929 0.67383-0.0009 0.34837 0.1843 0.66689 0.51953 0.89453 0.21783 0.14793 0.43502 0.22312 0.74609 0.26172 0.25046 0.032 0.25232 0.0318 0.50195 0.002 0.40567-0.0485 0.7083-0.18948 0.96485-0.45312 0.10975-0.11278 0.16475-0.19155 0.21875-0.30469 0.0721-0.15096 0.0746-0.26069 0.0742-0.39453-0.0005-0.13425-0.013-0.2761-0.0762-0.39453-0.12615-0.2364-0.34893-0.46141-0.57226-0.56641-0.20778-0.0977-0.31658-0.13187-0.52149-0.16796-0.10972-0.0192-0.22408-0.0294-0.33789-0.0274v-0.002zm-228.13 0.54687c9.0754 0 9.8692 0.16479 16.594 3.4941 16.172 8.0066 25.138 22.766 24.943 41.066-0.19111 17.945-9.728 33.07-25.498 40.449-4.9759 2.3285-7.7545 2.9712-13.992 3.2461-12.153 0.53554-21.964-3.2587-30.568-11.82-22.151-22.041-15.649-60.027 12.561-73.389 5.9182-2.8033 7.1965-3.0469 15.961-3.0469zm287.24 0c8.709 0 10.001 0.24687 15.912 3.0469 13.316 6.3072 23.022 19.272 25.492 34.049 0.95126 5.6911 0.88417 7.9976-0.42383 14.637-3.6116 18.332-14.977 31.231-31.361 35.594-12.913 3.4381-26.479-0.16459-36.73-9.7539-23.456-21.94-17.592-60.891 11.221-74.539 5.8804-2.7855 7.1898-3.0332 15.891-3.0332zm-226.85 4.043-2.8496 2.8496c0.79805 0.63918 1.7762 1.0626 2.8496 1.1797v-4.0293zm1.2168 0v4.0293c1.0741-0.11676 2.0534-0.54012 2.8516-1.1797l-2.8516-2.8496zm-169.68 1.6465c9.0722 0 9.8674 0.16589 16.598 3.4922 28.054 13.865 33.927 51.665 11.369 73.182-3.3356 3.1816-8.2286 6.604-11.9 8.3223-7.3823 3.4546-18.801 4.476-26.174 2.3398-11.048-3.201-21.584-11.914-26.506-21.918-3.5735-7.2634-5.9363-19.205-5.1309-25.916 1.9177-15.978 11.695-29.783 25.836-36.482 5.8498-2.7712 7.1623-3.0195 15.908-3.0195zm503.4 0c8.7091 0 10.001 0.24681 15.912 3.0469 13.316 6.3072 23.022 19.272 25.492 34.049 0.95127 5.6911 0.88418 7.9976-0.42382 14.637-3.0623 15.544-10.962 26.338-23.99 32.777-5.8655 2.8989-7.9964 3.4357-14.768 3.7266-4.3521 0.18697-9.515-0.0641-11.473-0.55859-10.5-2.6527-22.08-12.062-27.16-22.07-1.6576-3.2658-3.7045-9.4446-4.5488-13.73-1.4148-7.1815-1.4148-8.4025 0-15.584 3.0113-15.285 11.827-26.987 25.041-33.246 5.9114-2.8001 7.2089-3.0469 15.918-3.0469zm-396.02 4.2461c-3.7674 0.043-7.5428 0.82216-11.107 2.4219-13.956 6.2632-22.194 22.676-19.059 37.971 2.8817 14.059 10.452 23.054 22.756 27.051 1.3036 0.42348 5.5675 0.66746 9.4785 0.54492 8.8085-0.27612 14.597-2.9462 20.426-9.4297 10.342-11.502 12.369-27.018 5.3926-41.266-5.3442-10.914-16.584-17.422-27.887-17.293zm289.42 0.12695c-1.0452-0.0111-2.1335 0.0253-3.2715 0.0996-4.368 0.28533-8.1896 1.179-10.824 2.5293-24.768 12.694-24.696 50.176 0.1211 62.727 5.4094 2.7357 6.4158 2.9264 13.434 2.5566 12.485-0.65768 21.198-6.2747 26.484-17.08 7.5477-15.427 4.5776-32.128-7.709-43.357-5.6924-5.2026-10.918-7.4048-18.234-7.4746zm24.312 3.9043c-1.8006 0.0324-3.9086 2.1827-3.0703 3.5391 0.99779 1.6144 4.6956 0.7706 5.0625-1.1543 0.17425-0.91415-0.38882-1.9332-1.25-2.2637-0.23527-0.0902-0.48496-0.12575-0.74219-0.12109zm-337.66 0.19922c-1.8115-0.0265-3.7955 1.9548-2.9394 3.3398 0.96545 1.5622 4.6904 0.79744 5.0391-1.0332 0.16131-0.84693-0.44336-1.8224-1.3438-2.168-0.24312-0.0932-0.49708-0.13489-0.75586-0.13867zm311.86 0.39648c3.8122 0 7.6216 1.0171 11.684 3.0469 20.789 10.389 21.519 40.996 1.248 52.369-3.9598 2.2218-6.57 2.9383-11.85 3.2539-6.1396 0.36709-7.3234 0.128-12.664-2.5742-6.4301-3.2535-10.48-7.634-13.762-14.881-2.9168-6.442-2.8972-17.993 0.041-24.045 3.303-6.8032 7.3355-10.986 13.613-14.123 4.062-2.0298 7.8772-3.0469 11.689-3.0469zm-287.29 0.002c3.8073-0.001 7.6153 1.0061 11.648 3.0215 10.82 5.4068 15.841 13.701 15.832 26.15-0.003 6.9247-0.33846 8.3589-3.3086 14.182-3.632 7.1203-9.6839 12.574-16.072 14.488-4.1714 1.2498-11.563 1.2703-15.805 0.041-5.5104-1.597-12.057-6.8103-15.232-12.131-5.633-9.4378-6.2713-19.351-1.8574-28.951 3.2002-6.9603 6.5659-10.486 13.141-13.771 4.0405-2.0195 7.847-3.0274 11.654-3.0293zm398.06 1.1367c-1.1197-0.007-2.4094 0.0492-4.0039 0.14454-15.318 0.9153-26.787 11.893-29.404 28.143-2.6426 16.409 6.78 33.599 21.242 38.754 4.3213 1.5403 14.084 1.352 19.166-0.37305 13.505-4.5845 21.277-16.393 21.449-32.594 0.0668-6.3129-0.38618-9.2417-2.082-13.51-3.0292-7.6236-9.9661-14.931-17.297-18.221-3.889-1.7454-5.7111-2.3239-9.0703-2.3438zm-137.84 0.15821c-0.3367 0.0185-0.67207 0.11746-0.98437 0.31055-1.0192 0.62988-1.1479 3.6118-0.19727 4.5625 1.2525 1.2525 3.6033 0.10515 3.8906-1.8984 0.21749-1.517-1.0307-2.836-2.3711-2.9668-0.11169-0.0109-0.22566-0.014-0.33789-0.008zm-233.05 0.0527c-1.4764-0.0277-3.3021 2.2705-2.6406 3.9941 0.33043 0.86116 1.3418 1.4249 2.25 1.25 1.9641-0.37824 2.7548-3.3859 1.2793-4.8613-0.18082-0.18084-0.38365-0.29224-0.59961-0.34571-0.0945-0.0234-0.19064-0.0353-0.28906-0.0371zm-135.25 0.22067c-7.4094 0.001-9.159 0.33034-13.275 2.5156-12.849 6.8211-20.107 21.695-17.662 36.186 2.4612 14.587 10.411 24.381 22.879 28.188 4.1574 1.2692 13.734 0.93857 18.352-0.63477 2.5221-0.85937 6.6415-3.5065 9.4531-6.0762 18.117-16.558 14.451-46.526-7.0918-57.986-3.4317-1.8257-5.5533-2.1933-12.654-2.1914zm529.25 3.5215c-1.8006 0.0324-3.9086 2.1827-3.0703 3.5391 0.99778 1.6144 4.6956 0.77057 5.0625-1.1543 0.17424-0.91416-0.3888-1.9332-1.25-2.2637-0.23526-0.0902-0.48495-0.12574-0.74219-0.12109zm-553.83 0.19922c-1.8115-0.0265-3.7955 1.9547-2.9394 3.3398 0.96545 1.5622 4.6904 0.79742 5.0391-1.0332 0.16128-0.84695-0.44338-1.8224-1.3438-2.168-0.24307-0.0932-0.49708-0.13493-0.75586-0.13867zm24.576 0.40039c3.8073-0.001 7.6114 1.0042 11.645 3.0195 10.769 5.3814 15.817 13.681 15.84 26.047 0.0129 6.6996-0.35578 8.358-3.1055 13.943-3.5922 7.2968-8.813 12.262-15.174 14.43-4.7116 1.6054-12.221 1.8016-16.914 0.44141-5.5104-1.597-12.057-6.8103-15.232-12.131-5.6061-9.3928-6.2148-19.267-1.7891-29.025 3.1105-6.858 6.5006-10.411 13.072-13.695 4.0405-2.0195 7.8509-3.0275 11.658-3.0293zm505.86 0.17578c3.0779 0.0178 4.7861 0.66432 8.9473 2.7129 6.5256 3.2126 10.667 7.4256 13.758 14.002 6.392 13.598 0.81986 31.23-12.172 38.52-4.0774 2.2878-6.4132 2.91-11.85 3.1387-8.0816 0.34004-11.195-0.60125-17.324-5.2285-3.3162-2.5035-5.5478-5.3064-7.9121-9.9414-2.8975-5.6802-3.2953-7.3295-3.3184-13.713-0.0568-16.452 10.438-28.201 26.197-29.328 1.472-0.10525 2.6479-0.16803 3.6738-0.16211zm-29.473 1.1191c-0.33671 0.0185-0.67208 0.11748-0.98438 0.31055-1.0192 0.62988-1.1479 3.6099-0.19726 4.5606 1.2525 1.2525 3.6033 0.10715 3.8906-1.8965 0.2175-1.517-1.0308-2.836-2.3711-2.9668-0.11169-0.0109-0.22566-0.014-0.33789-0.008zm-449.22 0.0508c-1.4764-0.0277-3.302 2.2724-2.6406 3.9961 0.33046 0.86116 1.3419 1.423 2.25 1.248 1.9641-0.37824 2.7547-3.3878 1.2793-4.8633-0.18084-0.18081-0.38365-0.29028-0.59961-0.34375-0.0945-0.0234-0.19063-0.0353-0.28906-0.0371zm146.35 0.20508-0.25195 22.521-0.25781 22.525 78.947-0.24219 78.951-0.24414v-22.277-22.283h-78.695-78.693zm-65.473 1.5918c-1.6203-0.014-3.2733 0.19323-4.9277 0.63086-18.108 4.7898-20.758 29.289-4.1211 38.082 7.3938 3.908 17.992 1.515 23.645-5.3379 5.4685-6.6295 6.307-14.217 2.4258-22.006-3.5618-7.1477-10-11.311-17.021-11.369zm288.01 0.0351c-9.3454-0.0517-18.24 7.6507-19.717 17.496-1.273 8.4891 3.7004 17.788 11.383 21.277 4.198 1.9067 11.341 2.3245 15.123 0.88672 1.3104-0.49822 4.0892-2.4446 6.1719-4.3262 12.828-11.59 6.0261-33.19-11.09-35.217-0.62497-0.0742-1.248-0.11379-1.8711-0.11719zm107.24 5.4863c-1.5319 0-5.0525 1.1256-7.8223 2.5059-14.972 7.4611-14.772 29.606 0.33008 36.465 4.1741 1.8958 11.337 2.3286 15.068 0.91016 3.7869-1.4398 9.3458-6.8791 11.199-10.959 5.9833-13.171-4.2423-28.922-18.775-28.922zm-504.25 0.0762c-1.6957 0.0286-3.4129 0.36791-5.3066 1.002-13.596 4.5522-18.517 22.033-9.1914 32.654 1.6143 1.8386 4.4745 4.1563 6.3516 5.1484 4.3738 2.3116 11.751 2.3622 16.693 0.11719 15.247-6.9264 15.563-28.77 0.52734-36.393-3.4745-1.7614-6.2481-2.5769-9.0742-2.5293zm106.14 1.7793c5.9062 0.10056 11.842 4.1315 13.301 11.133 0.89127 4.2783-2.2747 11.069-6.3066 13.527-6.2132 3.7881-15.08 1.546-18.27-4.6211-2.0311-3.9278-1.8557-10.35 0.38672-14.027 2.313-3.7934 5.9463-5.7049 9.7109-5.9785 0.39216-0.0285 0.78399-0.0399 1.1777-0.0332zm292.83 0.17773c0.43395-0.005 0.86728 0.01 1.3008 0.0449 5.3947 0.43503 10.612 3.9742 12.113 10.91 0.9243 4.2691-2.2245 11.055-6.2793 13.527-8.7706 5.3472-19.996-1.0209-19.996-11.346 0-8.5104 6.3521-13.062 12.861-13.137zm-93.238 4.6934c0.32769-0.0193 0.69394 0.003 1.0996 0.0625 2.19 0.30965 2.2688 0.62368 2.5332 9.7227 0.20006 6.8836-0.0511 9.6084-0.94532 10.176-3.9689 2.5181-5.4888-0.1424-5.4726-9.5762 0.0144-7.9842 0.49149-10.25 2.7852-10.385zm-78.648 0.38282c2.3506 0 2.3696 0.0775 2.6406 9.4023 0.20007 6.8836-0.0532 9.6084-0.94727 10.176-1.823 1.1566-3.5896 0.96437-4.1328-0.45117-0.26521-0.69097-0.35822-5.2786-0.20703-10.193 0.27141-8.8264 0.30522-8.9336 2.6465-8.9336zm280.39 0.41406c4.8361 0.14926 9.6479 3.1264 12.021 8.8535 1.844 4.4494 1.844 4.5135 0 8.9629-1.1476 2.769-3.0797 5.3025-5.0566 6.6348-10.788 7.27-24.42-4.3802-19.127-16.346 2.4673-5.5778 7.326-8.2547 12.162-8.1055zm-509.41 0.0215c5.9062 0.10057 11.842 4.1295 13.301 11.131 0.89129 4.2783-2.2746 11.071-6.3066 13.529-6.2132 3.788-15.082 1.546-18.271-4.6211-2.0311-3.9277-1.8537-10.352 0.38867-14.029 2.313-3.7934 5.9463-5.7029 9.7109-5.9766 0.39215-0.0285 0.78398-0.0399 1.1777-0.0332zm208.33 1.1719c0.14903-0.008 0.30458-0.004 0.4668 0.01 0.37081 0.0325 0.77547 0.12113 1.2188 0.26172 1.7638 0.55978 1.9414 1.384 1.9414 8.9844 0 6.7557-0.2892 8.4787-1.5 8.9434-3.9976 1.5341-5.1348-0.45689-5.1348-8.9785 0-6.4673 0.77245-9.1037 3.0078-9.2207zm79.643 0c0.14903-0.008 0.30457-0.004 0.4668 0.01 0.37082 0.0325 0.77353 0.12113 1.2168 0.26172 1.7636 0.55978 1.9434 1.384 1.9434 8.9844 0 6.7557-0.28723 8.4787-1.498 8.9434-3.9976 1.5341-5.1387-0.45689-5.1387-8.9785 0-6.4673 0.7744-9.1037 3.0098-9.2207zm-88.812 4.082h2.8438l0.28516 6.5488c0.1993 4.6005-0.0863 6.7853-0.95118 7.334-3.7932 2.4061-5.662-0.36808-5.3066-7.875 0.2831-5.9808 0.29763-6.0078 3.1289-6.0078zm76.797 0h2.8438 2.8438l0.28515 6.5488c0.19929 4.6005-0.0861 6.7853-0.95117 7.334-0.67758 0.42979-1.6562 0.78125-2.1777 0.78125-2.74 0-3.4057-1.7253-3.1289-8.1152l0.28516-6.5488zm-54.43 1.2832-0.2793 6.4609c-0.2115 4.8449-0.63606 6.5187-1.7031 6.7031-3.005 0.51903-3.9073-1.2119-3.6113-6.9512 0.27572-5.3469 0.41138-5.6157 2.9434-5.9062l2.6504-0.30664zm79.643 0-0.28125 6.4688c-0.25666 5.8883-0.47371 6.4951-2.4199 6.7715-2.6946 0.38265-3.2615-1.0904-2.8945-7.5274 0.27367-4.7993 0.44835-5.1199 2.9434-5.4062l2.6524-0.30664zm-112.04 1.1816c0.64481-0.043 1.4101 0.11031 2.3086 0.45508 2.1883 0.83973 2.2384 10.361 0.0586 11.197-3.8017 1.4589-5.1387 0.003-5.1387-5.6016 0-4.0019 0.837-5.9221 2.7715-6.0508zm79.678 0.21289c0.90602-0.0469 1.8852 0.20448 2.4531 0.67579 1.6764 1.3913 1.8444 8.595 0.23828 10.201-0.62574 0.62576-1.5853 1.1055-2.1328 1.0644-2.7766-0.20876-3.3672-1.2776-3.3672-6.1035 0-4.2787 0.30523-5.1656 1.9434-5.6856 0.26698-0.0847 0.56323-0.13673 0.86524-0.15235zm-31.92 5.4805c0.35292-0.0265 0.80435 0.004 1.3828 0.0723 2.1983 0.25295 2.6055 0.74838 2.6055 3.1465 0 2.1409-0.47692 2.9107-1.9336 3.1191-2.5462 0.3645-3.2812-0.49074-3.2812-3.8184 0-1.83 0.16784-2.44 1.2266-2.5195zm79.641 0c0.35291-0.0265 0.8063 0.004 1.3848 0.0723 2.1983 0.25295 2.6055 0.74838 2.6055 3.1465 0 2.1409-0.47696 2.9107-1.9336 3.1191-2.5462 0.3645-3.2832-0.49074-3.2832-3.8184 0-1.8301 0.16786-2.44 1.2266-2.5195zm63.328 10.045c-0.0534 0.0142-0.082 0.0479-0.082 0.11132 0 0.5081 1.4559 2.2063 3.2363 3.7695 2.936 2.5778 6.1556 4.0473 11.459 5.2383 2.2528 0.50585 6.1052 0.64084 4.7422 0.16601-0.52144-0.18164-3.3074-0.98431-6.1894-1.7852-3.129-0.86947-6.8493-2.8343-9.2402-4.8809-1.9269-1.6494-3.5508-2.7181-3.9258-2.6191zm-250.64 0.0683c-0.48508 0.0486-1.7584 0.84402-3.668 2.4785-2.1565 1.8458-5.6766 3.9754-7.8223 4.7363-2.1457 0.76093-3.1422 1.4199-2.2129 1.4609 2.6704 0.11818 8.4961-2.6397 11.346-5.3691 2.0426-1.9564 2.809-3.0957 2.5156-3.2813-0.0367-0.0232-0.0889-0.0323-0.15821-0.0254zm358.72 5.5528c-0.0525 0.0111-0.082 0.0455-0.082 0.10351 0 1.4536 5.0653 5.7694 8.5332 7.2715 1.8251 0.79057 4.1739 1.4173 5.2168 1.3965 1.0462-0.0208 0.14656-0.65658-2.0059-1.4199-2.1456-0.76095-5.6658-2.8925-7.8223-4.7383-1.8868-1.6151-3.4726-2.6829-3.8398-2.6133zm-466.81 0.13281c-0.48508 0.0495-1.7584 0.84596-3.668 2.4805-2.1565 1.8458-5.6766 3.9773-7.8223 4.7383-2.1457 0.76093-3.1422 1.4199-2.2129 1.4609 2.6704 0.11818 8.502-2.6397 11.352-5.3691 2.0426-1.9564 2.8032-3.1016 2.5098-3.2871-0.0367-0.0232-0.0889-0.0305-0.1582-0.0234zm402.25 3.0938c-1.5277 0-3.0346 1.8951-2.5371 3.1914 0.32034 0.83482 1.4615 1.5195 2.5371 1.5195 2.3758 0 3.6352-2.7084 1.7988-3.8711-0.72782-0.46085-1.5381-0.83985-1.7988-0.83985zm-337.47 0.33008c-0.49063-0.0142-0.99515 0.0567-1.4785 0.24219-1.6958 0.65074-1.8414 2.3909-0.32812 3.9043 1.334 1.334 4.5938-0.13391 4.5938-2.0684 0-1.1795-1.3152-2.0355-2.7871-2.0781zm52.176 0.58984c-2.2087 0-3.3088 1.4388-2.5703 3.3633 0.59544 1.5516 2.309 1.7561 4.2773 0.50977 1.8037-1.1421 0.60131-3.873-1.707-3.873zm232.92 0.13477c-2.2431 0.0144-3.4589 2.5358-1.5684 3.752 2.0572 1.3233 4.166 0.54514 4.166-1.5332 0-1.2323-0.7381-1.9868-2.1367-2.1856-0.15806-0.0224-0.3114-0.0342-0.46093-0.0332zm-194.61 1.2852-0.25195 26.791-0.25391 26.791 78.947-0.24414 78.947-0.24415v-26.547-26.547h-78.695-78.693zm355.12 3.6797c-0.48866-0.0129-0.99388 0.0609-1.4668 0.24219-1.9197 0.73663-1.7987 2.8841 0.22656 4.0176 1.8263 1.0221 4.0391-0.21731 4.0391-2.2637 0-1.1265-1.3328-1.9579-2.7988-1.9961zm-553.34 0.10742c-0.76028 0.002-1.5538 0.27252-2.1504 0.86914-1.1489 1.1489-1.1879 1.6814-0.20703 2.8633 1.3923 1.6776 4.7969 0.42695 4.7969-1.7617 0-1.2323-1.1723-1.9755-2.4394-1.9707zm51.719 0.54493c-0.74455-0.0669-1.52 0.15086-2.0996 0.73047-0.53522 0.53528-0.70656 1.6716-0.37891 2.5254 0.86178 2.2458 4.873 1.4742 4.873-0.9375 0.00001-1.3073-1.1536-2.2066-2.3945-2.3184zm449.41 0c-0.74454-0.0669-1.52 0.15086-2.0996 0.73047-0.53525 0.53528-0.70262 1.6716-0.375 2.5254 0.86177 2.2457 4.8691 1.4742 4.8691-0.9375 0-1.3073-1.1537-2.2066-2.3945-2.3184zm-239.47 6.0996 0.30273 7.582c0.27453 6.9327 0.5212 7.7689 2.8887 9.7188l2.5879 2.1328-2.5684 2.1328c-1.8302 1.5188-2.6718 3.2277-2.9219 5.9277l-0.35156 3.791-0.1582-4.0488c-0.13067-3.32-0.58617-4.2436-2.5293-5.1289-1.3037-0.59401-2.3711-1.7983-2.3711-2.6738 0-0.87553 1.0674-2.074 2.3711-2.668 2.2245-1.0135 2.3814-1.5659 2.5606-8.9258l0.18945-7.8398zm-30.721 0.47265c0.52146 0 0.94726 1.3184 0.94726 2.9316 0 2.1358 0.51573 3.0686 1.8965 3.4297 2.612 0.68304 2.3778 3.5356-0.44141 5.3828-2.7503 1.8021-2.337 1.8044-5.0078-0.0586-2.6393-1.8411-2.7286-3.7161-0.23828-5.0488 1.2417-0.66449 1.8965-1.9875 1.8965-3.8281 0-1.5461 0.4258-2.8086 0.94727-2.8086zm46.049 0.47461 0.20704 11.639c0.20073 11.46 0.24015 11.65 2.5742 12.537 3.0815 1.1716 2.9917 2.2709-0.38281 4.6738-3.2156 2.2897-2.8346 2.2657-5.5449 0.375-2.7595-1.9249-2.6988-3.5101 0.20703-5.4141 2.2357-1.4649 2.3538-2.031 2.6406-12.672l0.29882-11.139zm15.01 0 0.30273 7.5859c0.27452 6.9327 0.52315 7.765 2.8906 9.7148l2.5918 2.1367-2.5703 2.1328c-1.8302 1.5188-2.6757 3.2218-2.9258 5.9219-0.34679 3.7443-0.35169 3.7508-0.52344 0.47461-0.19997-3.8164-0.89778-5.1056-3.2266-5.9648-2.4395-0.9001-2.0176-3.9942 0.71289-5.2383 2.2245-1.0135 2.3814-1.5601 2.5606-8.9199l0.1875-7.8438zm-76.229 0.98633c0.74184 0 1.4845 0.20545 2.3711 0.60937 3.0552 1.3921 3.0335 3.9606-0.0449 5.3633-1.3282 0.60518-2.5037 1.0685-2.6094 1.0332-4.8117-1.6046-5.8209-4.6956-2.0879-6.3965 0.88658-0.40392 1.6292-0.60937 2.3711-0.60937zm121.31 0.78516c0.70813 0.00032 1.486 0.34811 2.8184 1.0371 1.6041 0.82952 2.916 1.8439 2.916 2.2539 0 0.41002-1.1937 1.6232-2.6543 2.7031-2.6466 1.9567-2.6664 1.9614-5.2168 0.10351-3.1514-2.2957-3.1958-3.1439-0.26172-5.0664 1.0498-0.68795 1.6903-1.0316 2.3984-1.0312zm-14.65 4.332c0.75877-0.002 1.5196 0.26373 2.6094 0.79297 1.434 0.69639 2.6055 1.6382 2.6055 2.0957s-1.1714 1.6402-2.6055 2.625c-2.3117 1.5874-2.9032 1.6421-5.2148 0.48633-1.434-0.71694-2.6094-1.8899-2.6094-2.6055 0-0.71558 1.1753-1.8778 2.6094-2.584 1.0898-0.537 1.8467-0.80789 2.6055-0.81054zm-76.48 3.4941c0.69791-0.051 1.4142 0.16614 2.4238 0.63476 2.9172 1.354 3.2196 3.995 0.61914 5.3867-1.5246 0.81594-1.9129 2.217-2.1816 7.8574l-0.32617 6.8613-0.20117-6.1621c-0.21795-6.6196-0.67604-7.8567-3.2559-8.8086-2.3383-0.86269-2.0595-3.0358 0.61328-4.7871 0.9319-0.61061 1.6107-0.93138 2.3086-0.98242zm60.914 0.79297c0.71073-0.0121 1.4769 0.31787 2.7695 0.98632 1.5632 0.80839 2.8438 1.8575 2.8438 2.3301 0 0.47257-1.1754 1.6618-2.6094 2.6465-2.3117 1.5875-2.9012 1.6441-5.2129 0.48828-3.2396-1.6197-3.3152-3.3603-0.23437-5.3789 1.079-0.70698 1.7326-1.0607 2.4434-1.0723zm78.957 1.5312c1.8498 0.0509 2.7471 1.6774 2.1328 4.125-0.70075 2.792-3.447 3.27-5.3828 0.9375-1.4853-1.7897-0.19012-4.4748 2.4023-4.9844 0.30158-0.0592 0.58341-0.0852 0.84766-0.0781zm-218.47 0.13476c0.17767-0.0122 0.35778-0.0113 0.53711 0.002 0.86079 0.0634 1.7126 0.42176 2.293 1.1211 0.6494 0.78233 0.9034 2.2953 0.56445 3.3633-1.1802 3.7186-6.7536 1.3858-6.0098-2.5156 0.22628-1.1869 1.3716-1.8853 2.6152-1.9707zm-68.354 2.9805c0.82452 0.0359 1.6728 0.37006 2.4023 1.0996 1.165 1.1651 1.298 1.9744 0.55469 3.3633-1.1865 2.217-4.0185 2.381-5.7207 0.33008-1.9551-2.3558 0.29008-4.9004 2.7637-4.793zm354.9 0.004c2.4736-0.10746 4.7148 2.4314 2.7598 4.7871-1.7022 2.051-4.5342 1.8889-5.7207-0.32813-0.74334-1.3889-0.61039-2.1982 0.55468-3.3633 0.72951-0.72953 1.5817-1.0599 2.4062-1.0957zm40.008 2.5684c1.8498 0.0508 2.7471 1.6774 2.1328 4.125-0.70074 2.7919-3.447 3.27-5.3828 0.9375-1.4852-1.7897-0.19015-4.4748 2.4023-4.9844 0.30157-0.0592 0.58342-0.0852 0.84766-0.0781zm-434.69 0.4c2.6106 0 4.4539 2.3648 3.5918 4.6113-0.73736 1.9216-3.826 2.0234-5.3594 0.17578-1.7852-2.1511-0.81238-4.7871 1.7676-4.7871zm-68.422 2.5918c0.29752 0.011 0.61497 0.0664 0.94726 0.17187 2.4632 0.78179 3.4732 3.2208 2.0469 4.9394-2.7382 3.2994-7.7714-0.43831-5.2441-3.8945 0.61659-0.84317 1.3575-1.2463 2.25-1.2168zm571.17 0.12109c2.4736-0.10745 4.7149 2.4372 2.7598 4.793-1.7021 2.051-4.5342 1.8869-5.7207-0.33008-0.74334-1.3889-0.61033-2.2021 0.55469-3.3672 0.72955-0.72955 1.5817-1.0599 2.4062-1.0957zm-373.68 7.5469c-0.23646-0.005-0.56458-0.004-0.98047 0.004-5.8224 0.11709-28.663 1.5154-55.236 3.4004-30.37 2.1542-77.076 5.1544-103.79 6.6699-26.713 1.5156-49.005 3.0256-49.539 3.3555-1.1262 0.69606-1.401 111.62-0.2793 112.74 0.38015 0.3803 2.619 0.4434 4.9766 0.1407 2.3575-0.3028 21.142-2.2492 41.74-4.3203 64.128-6.4481 160.6-17.138 162.84-18.045l2.1328-0.8652v-51.25c0-44.84-0.18039-51.316-1.4336-51.797-0.0493-0.0189-0.19323-0.0299-0.42969-0.0352zm178.49 0.20117c-2.1654 0.041-3.0068 0.23372-3.2051 0.54687-0.45874 0.72439-0.84076 23.794-0.84766 51.264-0.0122 40.22 0.23227 50.189 1.2441 51.201 1.2225 1.2225 67.789 8.9021 167.03 19.268 21.38 2.2331 39.939 4.0001 41.242 3.9258l2.3711-0.1347 0.24805-55.885c0.13542-30.918-0.12835-56.257-0.58594-56.715-0.4549-0.4549-22.537-2.0622-49.072-3.5742s-73.57-4.5297-104.52-6.707c-29.738-2.092-44.334-3.0378-51.273-3.1797-1.0408-0.0213-1.9091-0.0235-2.6309-0.01zm-410.91 1.3906c-0.7111 0-1.7385 107.06-1.0508 109.51 0.14652 0.5215 3.9673 3.6159 8.4922 6.875 4.5249 3.2592 8.4939 5.9278 8.8223 5.9278 0.67612 0 1.8513-55.901 1.8535-88.234 0.001-15.671-0.31722-21.792-1.1856-22.904-1.3329-1.7079-15.675-11.17-16.932-11.17zm641.8 0.41406c-0.0535-0.00026-0.11865 0.007-0.19531 0.0234-2.2999 0.4627-14.625 8.057-17.391 10.822-1.1398 1.1398-1.2512 9.4126-0.72656 55.01 0.3396 29.517 0.79889 54.227 1.0156 54.912 0.22004 0.6951 0.92065 0.943 1.5859 0.5625 2.9238-1.6723 14.581-10.338 15.65-11.635 1.5621-1.8942 1.7428-108.71 0.18555-109.67-0.0293-0.018-0.0715-0.0271-0.125-0.0273zm-456.83 9.62c0.60072 0.001 1.204 0.0166 1.8066 0.0469 1.2857 0.0644 2.5741 0.19708 3.8633 0.39649 18.089 2.7978 32.225 17.669 35.238 37.074 3.5173 22.649-10.499 45.027-31.75 50.686-14.051 3.7411-30.004-1.1533-40.07-12.293-9.9166-10.974-14.072-28.248-10.291-42.766 5.0828-19.514 22.581-33.188 41.203-33.145zm271.38 0.006c5.9959-0.0504 12.046 1.2529 17.717 3.9805 6.5449 3.1477 16.104 12.426 19.293 18.723 13.409 26.48 0.57124 58.407-26.281 65.355-14.624 3.7844-29.361-0.6402-39.84-11.959-6.1472-6.6397-9.5079-13.263-11.477-22.631-3.2734-15.576 1.6322-31.479 13.027-42.242 7.7215-7.2929 17.567-11.143 27.561-11.227zm-214.49 6.0723v41.727 41.721h5.1934c4.4928 0 5.4004 0.3203 6.7441 2.3711 1.4644 2.235 2.0367 2.3711 10.008 2.3711 7.186 0 8.5441-0.2537 9.0645-1.6641 0.33669-0.9125 1.0733-1.9704 1.6328-2.3535s21.61-0.704 46.783-0.7109l45.773-0.016 0.90039 2.373c0.86912 2.2861 1.2043 2.3711 9.4356 2.3711 8.0134 0 8.6261-0.1428 10.057-2.3261 1.2728-1.9426 2.4108-2.3758 6.8984-2.6114l5.373-0.2793v-41.242-41.244l-78.934-0.24219-78.93-0.24414zm-165.35 3.2305c2.0387 0.009 4.0926 0.18524 6.1484 0.54297 28.811 5.0133 44.333 38.036 30.686 65.283-5.6856 11.351-17.039 20.383-28.68 22.818-23.814 4.9825-45.973-11.775-49.695-37.582-0.84619-5.8662-0.86622-9.3672-0.07227-14.002 3.55-20.725 20.666-36.059 39.58-37.014 0.67552-0.0341 1.3536-0.0497 2.0332-0.0469zm487.63 0.0352c0.63408-0.0129 1.2706-0.0106 1.9062 0.008 9.2456 0.26768 18.601 3.8658 26.533 11.432 10.05 9.5856 14.926 21.957 14.01 35.527-1.4537 21.536-14.391 37.545-33.646 41.631-14 2.9705-27.216-1.3575-37.695-12.344-8.9264-9.3584-13.694-23.526-12.221-36.314 2.7877-24.194 21.457-39.539 41.113-39.939zm-378.34 0.98828c-2.4956-0.0391-5.0656 0.28124-7.7188 0.96094-21.718 5.5639-31.44 29.873-20.537 51.354 3.875 7.6344 9.633 12.366 18.414 15.129 5.2732 1.6592 11.554 1.5876 17.564-0.19727 4.0676-1.2079 6.3784-2.797 11.395-7.8223 8.0305-8.045 10.611-14.185 10.611-25.266 0-10.165-2.6664-17.176-9.1328-24.014-6.3011-6.6625-13.109-10.027-20.596-10.145zm270.94 0.18554c-8.573 0.004-13.983 2.2943-20.904 8.8398-7.7001 7.2824-9.581 12.24-9.5469 25.133 0.0231 8.684 0.37171 11.18 2.0996 14.938 3.7801 8.219 12.8 16.247 21.102 18.781 4.8067 1.4674 12.694 0.88219 18.096-1.3398 7.6631-3.1524 12.767-7.6474 15.984-14.086 5.7906-11.588 6.1605-23.127 1.0742-33.459-5.9835-12.154-15.867-18.814-27.904-18.807zm-296.13 2.7012c-1.27 0.0853-2.1894 0.99233-2.1894 2.375 0 0.94367 0.53372 1.8996 1.1855 2.127 1.9198 0.66967 3.5566-0.3283 3.5566-2.1719 0-0.9437-0.53371-1.9016-1.1855-2.1289-0.47993-0.16741-0.94388-0.22958-1.3672-0.20117zm319.73 0.0508c-0.46401 0.0506-0.93207 0.26414-1.3379 0.66992-1.4108 1.4107-1.3514 3.2676 0.1211 3.7812 1.9119 0.66689 3.5566-0.32648 3.5566-2.1504 0-1.3022-0.8741-2.1774-1.8809-2.2988-0.15102-0.0182-0.30432-0.0188-0.45899-0.002zm-23.734 2.1621c7.3138 0 14.629 2.9518 19.957 8.8496 13.009 14.4 9.3026 38.093-7.2812 46.574-14.495 7.4129-30.406 1.5553-37.369-13.758-2.2197-4.8815-2.7195-7.2712-2.7148-13.082 0.004-8.3262 2.0609-13.768 7.4512-19.734 5.3284-5.8978 12.643-8.8496 19.957-8.8496zm-272.06 0.1582c8.1174-0.0252 14.584 2.8006 19.906 8.6914 7.4981 8.2995 9.5622 18.091 6.168 29.266-1.7829 5.8697-2.8945 7.6855-7.5469 12.338-4.1749 4.1749-6.6498 5.8122-10.531 6.9648-6.4659 1.9202-10.625 1.8649-16.67-0.22461-7.3182-2.5297-12.168-6.9008-15.754-14.188-2.7582-5.6053-3.1109-7.201-3.0664-13.934 0.061-9.2101 3.04-16.365 9.0918-21.832 5.7541-5.1985 10.58-7.0576 18.402-7.082zm27.977 2.8262c-2.234 0-3.1028 1.2086-2.3262 3.2324 0.97119 2.5308 4.1641 1.8705 4.1641-0.86132 0-1.7142-0.50701-2.3711-1.8379-2.3711zm215.81 0.11719c-0.16577-0.009-0.31631-0.007-0.45313 0.006-0.82092 0.0795-1.1367 0.55426-1.1367 1.5508 0 0.99228 0.29845 2.0992 0.66407 2.4648 1.2578 1.2578 3.6016 0.0996 3.6016-1.7812 0-1.2311-0.73822-1.9875-2.1328-2.1855-0.19638-0.0279-0.37721-0.0459-0.54297-0.0547zm136.43 1.4121c-8.2991 0.0762-13.884 2.3755-20.254 8.334-2.5328 2.3691-5.8532 6.7704-7.3789 9.7832-2.5664 5.068-2.7773 6.2592-2.7773 15.908 0 9.4928 0.24039 10.915 2.6465 15.814 3.4261 6.9768 12.397 15.391 18.486 17.342 9.9168 3.1774 23.525-0.1197 30.852-7.4707 3.7195-3.7317 7.8639-12.071 9.2812-18.68 3.22-15.014-4.4813-31.409-17.846-37.988-5.3919-2.6544-7.2795-3.0956-13.01-3.043zm-488.35 0.0176c-12.246-0.0829-22.469 6.8451-28.287 19.168-2.6351 5.5812-2.9723 7.2347-2.9199 14.367 0.0659 8.9508 1.3471 13.381 6.1836 21.361 3.4261 5.653 8.0062 9.1959 15.49 11.982 6.2896 2.3418 15.679 1.8851 21.76-1.0586 6.0743-2.9405 12.597-9.5843 15.381-15.666 10.717-23.409-3.9182-49.994-27.607-50.154zm211.91 0.32422 32.943 0.24804 32.949 0.25196 0.26954 13.271c0.14993 7.3005 0.0383 14.235-0.25196 15.408l-0.52734 2.1328h-32.061c-17.633 0-32.344-0.28321-32.691-0.63086-0.34763-0.34763-0.63086-7.393-0.63086-15.656v-15.025zm-236.94 3.8184c-2.4467 0-3.3898 1.6236-1.9492 3.3594 1.3225 1.5935 1.8364 1.666 3.6562 0.51367 1.8037-1.1421 0.60128-3.873-1.707-3.873zm538.57 0c-2.1926 0-3.2455 2.192-1.7637 3.6738 1.2702 1.2701 1.6978 1.2971 3.4316 0.19922 1.7861-1.131 0.60458-3.873-1.668-3.873zm-133.11 0.0449c-9.9592 0.19708-19.15 8.3281-19.182 20.412-0.021 7.9406 3.6345 13.932 10.775 17.662 5.7715 3.0151 10.75 3.3796 16.025 1.1758 13.803-5.7659 16.876-24.374 5.6524-34.229-4.0569-3.562-8.7446-5.111-13.271-5.0215zm-273.12 0.0117c-10.314 0.25032-19.592 8.8493-19.592 20.328 0 7.9341 5.7847 16.514 12.789 18.971 5.6804 1.992 9.9762 1.69 15.566-1.0957 14.972-7.4611 14.774-29.606-0.32813-36.465-2.4469-1.1114-4.9627-1.6663-7.4336-1.7363-0.3346-0.009-0.66924-0.01-1.002-0.002zm381.93 0.52148c6.5194 0.099 13.119 2.7166 18.547 8.6055 5.9508 6.4559 7.9663 11.677 7.9824 20.682 0.0122 6.2322-0.43004 8.5142-2.4648 12.799-2.9096 6.1267-8.0844 11.535-13.596 14.203-2.1668 1.049-6.4762 2.1187-9.5762 2.377-13.462 1.1214-24.753-7.7741-28.516-22.463-5.1857-20.242 10.962-36.456 27.623-36.203zm-488.49 0.0586c3.5559 0.0905 7.1344 0.92791 10.535 2.5918 13.37 6.5412 19.342 20.901 14.846 35.703-1.78 5.8604-2.8962 7.6775-7.5469 12.328-4.1749 4.1749-6.6498 5.8122-10.531 6.9648-6.9503 2.064-11.811 1.7606-19.213-1.2031-4.4386-1.7772-11.709-9.3549-14.041-14.629-2.9815-6.7436-3.0856-18.176-0.2207-24.496 5.0202-11.076 15.504-17.531 26.172-17.26zm254.77 0.19727-0.12109 6.457c-0.0677 3.5514-0.18717 8.3761-0.26563 10.723-0.0785 2.3466 0.24015 4.7993 0.71094 5.4512 0.95161 1.3175 4.2707 1.5528 6.041 0.42773 0.81178-0.51591 1.079-3.9089 0.91601-11.6l-0.23047-10.873-3.5254-0.29297-3.5254-0.29297zm-229.08 1.2012c-0.11106-0.003-0.21857 0.004-0.32422 0.0195-1.4791 0.22314-2.3192 2.2089-1.5645 4.1758 0.90427 2.3564 3.8945 1.2105 3.8945-1.4922 0.00002-1.4804-0.61253-2.4619-1.6621-2.6641-0.11729-0.0225-0.2327-0.0362-0.34375-0.0391zm435.47 0.0117c-1.7143-0.17898-2.768 1.4488-2.0859 3.5977 0.38949 1.2272 1.2798 1.9303 2.2266 1.75 2.1403-0.40771 2.6309-4.3883 0.63476-5.1543-0.26859-0.10315-0.5305-0.16778-0.77539-0.19336zm-162.82 1.7441c9.2722 0 12.726 11.536 4.6973 15.688-3.2475 1.6794-5.3476 1.7216-8.4297 0.16211-4.9967-2.5282-6.0562-8.4752-2.3047-12.934 1.943-2.3091 3.2031-2.916 6.0371-2.916zm-59.699 1.1445c-0.62971 0.001-1.2619 0.0775-1.7441 0.23047-1.5364 0.48764-1.7577 1.6408-1.7812 9.3086-0.0168 5.4806 0.37324 9.013 1.043 9.4492 0.58817 0.38311 1.71 0.69336 2.4922 0.69336 3.2658 0 3.7474-1.3747 3.5918-10.197-0.13248-7.5107-0.38701-8.7932-1.8691-9.2637-0.47321-0.14964-1.1027-0.22273-1.7324-0.2207zm143.32 1.9785c1.8443 0.006 3.7856 0.53724 5.9277 1.5742 5.1824 2.5088 8.7022 8.6614 7.7715 13.586-0.88002 4.6564-3.7833 8.7192-7.4785 10.473-4.3513 2.0648-8.0451 2.001-11.666-0.20703-5.1433-3.1364-7.0234-6.404-7.0234-12.193 0-4.7548 0.30664-5.5097 3.6016-8.8047 2.9945-2.9944 5.7934-4.4391 8.8672-4.4277zm-277.47 0.19531c7.1708 0 13.119 6.0182 13.119 13.275 0 4.9051-2.0035 8.2466-6.9473 11.611-1.7239 1.1733-4.501 2.1328-6.1719 2.1328-3.4358 0-8.3798-3.0119-11.211-6.834-5.7413-7.751 1.1643-20.186 11.211-20.186zm111.4 2.3711v6.9512c0 3.8241 0.30418 7.2593 0.67578 7.6309 0.37157 0.3715 1.7327 0.54698 3.0215 0.39257 2.8419-0.34028 3.6644-2.9721 3.1328-9.998-0.37492-4.9568-0.39064-4.9766-3.6035-4.9766h-3.2266zm48.266 0 0.0449 4.502c0.0247 2.477 0.049 5.5478 0.0508 6.8223 0.001 1.2745 0.53623 2.6521 1.1855 3.0645 1.4875 0.94463 3.6919 0.96354 5.1426 0.041 0.68674-0.43676 1.1268-3.356 1.1406-7.5684l0.0176-6.8613h-3.791-3.791zm224.23 0c-11.471 0-19.688 8.4975-19.777 20.457-0.059 7.9324 3.5856 13.92 10.748 17.662 2.7892 1.4571 6.4058 2.6468 8.041 2.6445 18.942-0.0337 27.688-23.356 13.447-35.859-4.4149-3.8764-7.0279-4.9043-12.459-4.9043zm-490.44 0.0176c-2.657 0.0447-5.271 0.63135-7.6016 1.8203-12.73 6.4944-15.292 22.826-5.1738 32.959 2.1881 2.1913 5.3974 4.3952 7.1309 4.8945 19.324 5.5667 34.172-17.078 21.377-32.602-3.8144-4.6276-9.8872-7.1706-15.732-7.0723zm252.37 3.8594c-0.49142-0.0158-1.1245 0.0253-1.9512 0.0937l-3.5566 0.29297-0.0488 4.7422c-0.0271 2.6073 0.39664 5.0544 0.94531 5.4375 1.2833 0.89652 3.5398 0.89384 4.959-0.008 1.1632-0.73982 1.6526-3.5704 1.4024-8.0918-0.10304-1.8586-0.27573-2.4194-1.75-2.4668zm240.13 3.082c1.1911-0.003 2.3831 0.18301 3.5508 0.56836 4.22 1.3927 8.8888 6.5846 9.6699 10.748 0.79221 4.2229-1.8384 10.59-5.4316 13.148-4.0033 2.8506-9.9694 3.2746-13.637 0.96875-5.1339-3.2279-7.0273-6.4871-7.0273-12.104 0-4.297 0.4404-5.553 2.9336-8.3926 2.809-3.1992 6.3681-4.9258 9.9414-4.9375zm-493.46 0.008c3.1072 0.10867 6.1446 1.536 8.7598 4.2656 5.4187 5.6559 5.129 13.348-0.71289 19.01-2.4161 2.3417-4.3145 3.2573-7.3652 3.5527-12.833 1.2427-19.585-14.646-9.8555-23.189 2.8896-2.5371 6.0666-3.7473 9.1738-3.6387zm232.18 1.0918c-2.9552 0-3.3541 0.29881-3.6328 2.7402-0.17777 1.5571 0.23096 3.085 0.94726 3.5391 0.69358 0.43969 1.9033 0.80274 2.6856 0.80274 2.642 0 3.9461-1.563 3.6289-4.3418-0.2787-2.4414-0.67368-2.7402-3.6289-2.7402zm-103.67 18.811c-0.30128 0.0766-1.2245 0.77269-2.9941 2.1465-5.2326 4.0622-7.5886 5.1853-12.676 6.0449l-4.3906 0.74414 3.9219 0.11328c4.7111 0.13403 13.128-3.9488 15.408-7.4746 0.71526-1.106 1.0318-1.6507 0.73047-1.5742zm108.79 1.5293c2.2523-0.12561 4.3594 1.6591 4.3594 4.7832 0 1.3558-0.51097 2.9797-1.1367 3.6055-1.9111 1.9111-5.3455 1.3055-7.0098-1.2344-1.4387-2.1957-1.4387-2.5465 0-4.7422 1.0315-1.5743 2.4358-2.3367 3.7871-2.4121zm128.43 0.041c-0.25673 0.003-0.22341 0.27721 0.0547 0.79687 0.54881 1.0255 3.2227 2.9733 5.9414 4.3281 3.1141 1.5518 6.3639 2.4227 8.7852 2.3535 3.9371-0.11271 3.5897-0.29045-2.498-1.2812-1.9223-0.31284-5.6844-2.0746-8.3613-3.916-2.2609-1.5552-3.4939-2.2893-3.9219-2.2812zm-146.58 0.002c3.8271 0 5.7867 5.2075 3.0059 7.9883-0.81942 0.81944-2.245 1.4922-3.1699 1.4922-1.9959 0-4.8184-2.873-4.8184-4.9043 0-1.8249 2.9946-4.5762 4.9824-4.5762zm36.711 0.0723c1.1174 0.0424 2.2285 0.59426 3.1914 1.6582 2.0394 2.2536 1.9893 4.2346-0.16211 6.1816-0.95367 0.86299-2.4157 1.5684-3.25 1.5684-3.8271 0-5.7867-5.2114-3.0059-7.9922 0.98981-0.98978 2.1092-1.4585 3.2266-1.416zm17.805 0.0703c0.54389 0.001 1.1532 0.14424 1.918 0.41211 3.2227 1.1266 4.151 5.7812 1.5332 7.6953-2.3404 1.7114-4.5462 1.5344-6.3926-0.50586-2.0872-2.3063-1.9793-4.2386 0.35547-6.3516 0.76123-0.68893 1.3799-1.0761 2.0605-1.2031 0.17017-0.0318 0.3441-0.0473 0.52539-0.0469zm136.07 6.4356c-1.482-0.0888-3.1016 0.59753-3.1016 1.7988 0 0.95602 0.28322 2.0176 0.63086 2.3652 1.7266 1.7266 5.8749-1.0778 4.6133-3.1191-0.40932-0.66232-1.2534-0.99174-2.1426-1.0449zm-326.09 0.0586c-2.1465 0-3.1323 2.5552-1.582 4.1055 1.1785 1.1785 3.0908 0.6444 4.043-1.1348 1.1497-2.1482 0.46985-2.9707-2.4609-2.9707zm388.83 1.3613c-0.12409 0.0749 0.24078 0.65853 0.92774 1.707 0.91052 1.3897 3.8378 3.6168 6.5039 4.9453 2.666 1.3286 5.7221 2.3956 6.793 2.3711 1.1207-0.0255 0.052-0.78611-2.5234-1.793-2.461-0.96208-6.2666-3.1687-8.4531-4.9004-1.8853-1.4932-2.8591-2.2483-3.1641-2.3301-0.0381-0.0102-0.0663-0.0107-0.084 0zm-452.31 0.17382c-0.33804 0.0519-1.2587 0.7182-2.9609 2.0664-2.0973 1.6611-5.6739 3.8626-7.9512 4.8945-3.26 1.4771-3.5383 1.7556-1.2988 1.3164 4.0509-0.79448 10.677-4.7725 11.969-7.1856 0.33594-0.62769 0.4722-0.9923 0.35156-1.0762-0.0251-0.0175-0.0611-0.023-0.10938-0.0156zm115.43 1.4668c-0.45384 0.0487-0.89667 0.23847-1.2578 0.59961-0.55562 0.55566-0.73854 1.7087-0.41015 2.5644 0.75906 1.978 3.7945 1.452 4.2148-0.73046 0.28302-1.4696-1.1853-2.5799-2.5469-2.4336zm221.05 0.0312c-0.24388 0.011-0.48281 0.0587-0.71679 0.14844-1.4767 0.56666-1.9209 2.6513-0.80274 3.7695 1.1224 1.1224 3.8876 0.66954 4.4219-0.72266 0.58218-1.5171-1.195-3.2635-2.9024-3.1953zm-379.53 7.4609c-0.7445-0.0671-1.52 0.1509-2.0996 0.73047-0.53524 0.53535-0.70653 1.6696-0.3789 2.5234 0.86178 2.2458 4.873 1.4742 4.873-0.9375 0-1.3073-1.1536-2.2047-2.3945-2.3164zm538.53 0c-0.74454-0.0671-1.52 0.1509-2.0996 0.73047-0.53524 0.53535-0.70266 1.6696-0.375 2.5234 0.86178 2.2458 4.8691 1.4742 4.8691-0.9375 0-1.3073-1.1537-2.2047-2.3945-2.3164zm-52.129 0.008c-0.43338 0.007-0.86687 0.40824-1.6504 1.2031-1.5808 1.6037-1.5702 1.7481 0.19531 3.0566 1.6231 1.203 2.0274 1.1952 3.2812-0.0586 1.2765-1.2765 1.2561-1.6072-0.19336-3.0566-0.76752-0.76755-1.1994-1.1522-1.6328-1.1445zm-434.34 0.14063c-0.44064 0.0455-0.88839 0.37278-1.5195 1.0039-1.2524 1.2524-1.3149 1.7938-0.33008 2.9805 0.89911 1.0833 1.6614 1.2048 3.0039 0.48632 2.1812-1.1673 2.265-2.1666 0.32422-3.7773-0.60621-0.50311-1.0379-0.73896-1.4785-0.69336z"/>
 </g>
</svg>
